<svg width="31" height="31" viewBox="0 0 31 31" fill="none" xmlns="http://www.w3.org/2000/svg">
<g id="vuesax/bold/call-calling">
<g id="call-calling">
<path id="Vector" d="M22.6655 13.9062C22.1172 13.9062 21.6837 13.46 21.6837 12.9245C21.6837 12.4527 21.212 11.471 20.4215 10.6167C19.6437 9.78797 18.7895 9.30347 18.0755 9.30347C17.5273 9.30347 17.0938 8.85722 17.0938 8.32172C17.0938 7.78622 17.54 7.33997 18.0755 7.33997C19.3505 7.33997 20.6892 8.02847 21.8622 9.26522C22.9587 10.4255 23.66 11.8662 23.66 12.9117C23.66 13.46 23.2137 13.9062 22.6655 13.9062Z" fill="#E84B1B"/>
<path id="Vector_2" d="M27.2682 13.9062C26.7199 13.9062 26.2864 13.46 26.2864 12.9245C26.2864 8.39825 22.6017 4.72625 18.0882 4.72625C17.5399 4.72625 17.1064 4.28 17.1064 3.7445C17.1064 3.209 17.5399 2.75 18.0754 2.75C23.6854 2.75 28.2499 7.3145 28.2499 12.9245C28.2499 13.46 27.8037 13.9062 27.2682 13.9062Z" fill="#E84B1B"/>
<path id="Vector_3" d="M14.2887 19.2613L11.93 21.62C11.4327 22.1173 10.6422 22.1173 10.1322 21.6328C9.992 21.4925 9.85175 21.365 9.7115 21.2248C8.39825 19.8988 7.2125 18.509 6.15425 17.0555C5.10875 15.602 4.26725 14.1485 3.65525 12.7078C3.056 11.2543 2.75 9.8645 2.75 8.5385C2.75 7.6715 2.903 6.84275 3.209 6.07775C3.515 5.3 3.9995 4.586 4.67525 3.9485C5.49125 3.14525 6.38375 2.75 7.32725 2.75C7.68425 2.75 8.04125 2.8265 8.36 2.9795C8.6915 3.1325 8.98475 3.362 9.21425 3.6935L12.1722 7.86275C12.4018 8.1815 12.5675 8.47475 12.6823 8.75525C12.797 9.023 12.8608 9.29075 12.8608 9.533C12.8608 9.839 12.7715 10.145 12.593 10.4383C12.4272 10.7315 12.185 11.0375 11.879 11.3435L10.91 12.3507C10.7697 12.491 10.706 12.6568 10.706 12.8608C10.706 12.9628 10.7188 13.052 10.7443 13.154C10.7825 13.256 10.8208 13.3325 10.8463 13.409C11.0758 13.8298 11.471 14.378 12.032 15.041C12.6057 15.704 13.2177 16.3798 13.8807 17.0555C14.0082 17.183 14.1485 17.3105 14.276 17.438C14.786 17.9353 14.7987 18.7513 14.2887 19.2613Z" fill="#E84B1B"/>
<path id="Vector_4" d="M28.2122 23.5707C28.2122 23.9277 28.1484 24.2975 28.0209 24.6545C27.9827 24.7565 27.9444 24.8585 27.8934 24.9605C27.6767 25.4195 27.3962 25.853 27.0264 26.261C26.4017 26.9495 25.7132 27.4467 24.9354 27.7655C24.9227 27.7655 24.9099 27.7782 24.8972 27.7782C24.1449 28.0842 23.3289 28.25 22.4492 28.25C21.1487 28.25 19.7589 27.944 18.2927 27.3192C16.8264 26.6945 15.3602 25.853 13.9067 24.7947C13.4094 24.425 12.9122 24.0552 12.4404 23.66L16.6097 19.4907C16.9667 19.7585 17.2854 19.9625 17.5532 20.1027C17.6169 20.1282 17.6934 20.1665 17.7827 20.2047C17.8847 20.243 17.9867 20.2557 18.1014 20.2557C18.3182 20.2557 18.4839 20.1792 18.6242 20.039L19.5932 19.0827C19.9119 18.764 20.2179 18.5217 20.5112 18.3687C20.8044 18.1902 21.0977 18.101 21.4164 18.101C21.6587 18.101 21.9137 18.152 22.1942 18.2667C22.4747 18.3815 22.7679 18.5472 23.0867 18.764L27.3069 21.7602C27.6384 21.9897 27.8679 22.2575 28.0082 22.5762C28.1357 22.895 28.2122 23.2137 28.2122 23.5707Z" fill="#E84B1B"/>
</g>
</g>
</svg>
