<svg width="13" height="12" viewBox="0 0 13 12" fill="none" xmlns="http://www.w3.org/2000/svg">
<path d="M5.35361 0C4.83413 0 4.35203 0.269032 4.09043 0.704975L3.37632 1.89474H2.1125C0.95162 1.89474 0 2.81939 0 3.94737V9.94737C0 11.0753 0.95162 12 2.1125 12H10.8875C12.0484 12 13 11.0753 13 9.94737V3.94737C13 2.81939 12.0484 1.89474 10.8875 1.89474H9.62368L8.90957 0.704975C8.64797 0.269032 8.16586 0 7.64639 0H5.35361ZM5.35361 0.947368H7.64639C7.82046 0.947368 7.97978 1.03662 8.06724 1.18236L8.9229 2.60711C8.96582 2.67858 9.02725 2.73789 9.10109 2.77911C9.17493 2.82034 9.25859 2.84206 9.34375 2.84211H10.8875C11.5213 2.84211 12.025 3.33156 12.025 3.94737V9.94737C12.025 10.5632 11.5213 11.0526 10.8875 11.0526H2.1125C1.47873 11.0526 0.975 10.5632 0.975 9.94737V3.94737C0.975 3.33156 1.47873 2.84211 2.1125 2.84211H3.65625C3.74141 2.84206 3.82507 2.82034 3.89891 2.77911C3.97275 2.73789 4.03418 2.67858 4.0771 2.60711L4.93276 1.18236C5.02022 1.03662 5.17954 0.947368 5.35361 0.947368ZM6.5 3.78947C4.89034 3.78947 3.575 5.06754 3.575 6.63158C3.575 8.19562 4.89034 9.47368 6.5 9.47368C8.10966 9.47368 9.425 8.19562 9.425 6.63158C9.425 5.06754 8.10966 3.78947 6.5 3.78947ZM6.5 4.73684C7.58273 4.73684 8.45 5.57953 8.45 6.63158C8.45 7.68362 7.58273 8.52632 6.5 8.52632C5.41727 8.52632 4.55 7.68362 4.55 6.63158C4.55 5.57953 5.41727 4.73684 6.5 4.73684Z" fill="#212121"/>
</svg>
