<svg width="13" height="13" viewBox="0 0 13 13" fill="none" xmlns="http://www.w3.org/2000/svg">
<g id="cancle">
<path id="Vector" d="M1.35814 13C1.01293 13 0.667715 12.8729 0.395178 12.6004C-0.131726 12.0737 -0.131726 11.2019 0.395178 10.6752L10.6789 0.39504C11.2058 -0.13168 12.0779 -0.13168 12.6048 0.39504C13.1317 0.92176 13.1317 1.79357 12.6048 2.32029L2.3211 12.6004C2.06674 12.8729 1.70335 13 1.35814 13Z" fill="#353535"/>
<path id="Vector_2" d="M11.6419 13C11.2966 13 10.9514 12.8729 10.6789 12.6004L0.395178 2.32029C-0.131726 1.79357 -0.131726 0.92176 0.395178 0.39504C0.922083 -0.13168 1.7942 -0.13168 2.3211 0.39504L12.6048 10.6752C13.1317 11.2019 13.1317 12.0737 12.6048 12.6004C12.3323 12.8729 11.9871 13 11.6419 13Z" fill="#353535"/>
</g>
</svg>
