<svg width="109" height="109" viewBox="0 0 109 109" fill="none" xmlns="http://www.w3.org/2000/svg">
<g id="car-white-svgrepo-com 4">
<g id="Group" filter="url(#filter0_f_329_6262)">
<path id="Vector" d="M30.904 58.5216C28.7385 56.4614 25.1509 52.0071 24.2665 49.6037C23.1631 46.9983 28.0826 47.1874 28.6958 47.1514C29.3091 47.1152 58.4536 47.3084 63.4223 47.5693C68.391 47.8304 79.3612 58.1005 81.6054 61.4043C83.4347 64.0974 81.1355 64.1898 80.6577 64.2942C80.18 64.3987 55.3009 65.4305 46.6544 65.2142C40.1065 65.0504 35.1547 62.5655 30.904 58.5216Z" fill="black" fill-opacity="0.2"/>
</g>
<path id="Vector_2" fill-rule="evenodd" clip-rule="evenodd" d="M55.4646 55.6957L53.4892 53.1986L53.4878 53.1997C53.4754 53.1834 53.4626 53.1671 53.4496 53.1511C52.2613 51.6866 49.2819 52.1436 46.7947 54.1719C44.3076 56.2002 43.2546 59.0316 44.4429 60.496C44.4591 60.5161 44.4757 60.5357 44.4926 60.555L46.3969 62.9651L49.3038 60.6347C49.9092 60.3369 50.517 59.9489 51.0977 59.4752C51.6334 59.0384 52.1025 58.5643 52.4971 58.0748L55.4646 55.6957Z" fill="#2E3138"/>
<path id="Vector_3" d="M46.4028 62.9722C47.591 64.4367 50.569 63.9809 53.0542 61.9543C55.5394 59.9276 56.5908 57.0975 55.4025 55.6331C54.2143 54.1686 51.2363 54.6244 48.7511 56.651C46.2659 58.6777 45.2145 61.5078 46.4028 62.9722Z" fill="#2E3138"/>
<g id="Group_2" filter="url(#filter1_d_329_6262)">
<path id="Vector_4" d="M47.6146 62.1023C48.5058 63.2007 50.7394 62.8589 52.6034 61.3388C54.4674 59.8188 55.2559 57.6961 54.3647 56.5977C53.4735 55.4993 51.2399 55.8411 49.3759 57.3612C47.5119 58.8812 46.7234 61.0039 47.6146 62.1023Z" fill="url(#paint0_linear_329_6262)"/>
</g>
<g id="Group_3" filter="url(#filter2_di_329_6262)">
<path id="Vector_5" fill-rule="evenodd" clip-rule="evenodd" d="M52.2941 56.534C51.8661 56.5624 51.3951 56.6873 50.9179 56.9031L51.0002 58.3989C51.1415 58.3395 51.2807 58.301 51.4113 58.2841L52.2941 56.534ZM50.3133 60.4608C50.1413 60.445 49.9961 60.3811 49.8982 60.266L48.0686 61.4686C48.1025 61.5275 48.141 61.5838 48.1843 61.6371C48.4687 61.9876 48.9176 62.1617 49.4504 62.1715L50.3133 60.4608ZM49.6192 62.1693L50.4804 60.4618C50.6296 60.4509 50.792 60.41 50.9572 60.3407L51.0379 61.8067C50.5442 62.0271 50.0576 62.1501 49.6192 62.1693ZM51.5836 58.2747L52.4649 56.5277C53.0252 56.5247 53.4983 56.6984 53.7938 57.0625C53.8764 57.1643 53.9416 57.2765 53.9901 57.3975L52.1436 58.6111C52.1248 58.5645 52.0996 58.5212 52.0678 58.4819C51.9587 58.3475 51.7872 58.28 51.5836 58.2747ZM52.3301 61.0026C51.9592 61.3051 51.5707 61.5514 51.1841 61.7386L51.1034 60.2723C51.2373 60.2031 51.3713 60.1157 51.4997 60.0109C51.5153 59.9982 51.5307 59.9853 51.5459 59.9723L52.5186 60.8426C52.4574 60.8967 52.3945 60.9501 52.3301 61.0026ZM50.8541 58.4673L50.7717 56.972C50.3925 57.1577 50.0118 57.4004 49.648 57.6971C49.5742 57.7573 49.5024 57.8186 49.4327 57.8809L50.4179 58.7623C50.4314 58.7508 50.4451 58.7394 50.4589 58.7282C50.587 58.6237 50.7204 58.5365 50.8541 58.4673ZM52.6303 60.7414C53.1079 60.298 53.4815 59.8087 53.7323 59.3242L52.0087 59.424C51.9209 59.5767 51.8025 59.7291 51.6571 59.8707L52.6303 60.7414ZM50.3065 58.8636C50.133 59.0315 49.9975 59.2148 49.9064 59.3957L48.1861 59.4954C48.4314 58.981 48.8174 58.4563 49.3216 57.9826L50.3065 58.8636ZM48.1168 59.6495L49.8394 59.5497C49.7597 59.7676 49.749 59.9746 49.8195 60.1387L48.0011 61.3338C47.8011 60.8696 47.8532 60.2715 48.1168 59.6495ZM53.8083 59.1698L52.087 59.2695C52.1651 59.0911 52.1987 58.9173 52.1817 58.7653L54.0397 57.5441C54.1698 58.0101 54.0813 58.5824 53.8083 59.1698Z" fill="#4C4C4C"/>
</g>
<path id="Vector_6" fill-rule="evenodd" clip-rule="evenodd" d="M55.491 55.6404L53.5156 53.1433L53.515 53.1438C53.503 53.1281 53.4907 53.1125 53.4782 53.0971C52.2899 51.6326 49.3105 52.0897 46.8233 54.1179C44.3362 56.1462 43.2833 58.9776 44.4715 60.4421C44.4835 60.4569 44.4957 60.4714 44.508 60.4858L46.4233 62.9098L49.3224 60.5856C49.9311 60.2872 50.5423 59.8976 51.1263 59.4213C51.6652 58.9819 52.1366 58.5048 52.5326 58.0121L55.491 55.6404Z" fill="#2E3138"/>
<path id="Vector_7" d="M53.0844 61.9695C50.5992 63.9961 47.6213 64.4519 46.433 62.9874C45.2447 61.523 46.2961 58.6929 48.7813 56.6662C51.2665 54.6396 54.3814 54.0764 55.5697 55.5408C56.7579 57.0052 55.5696 59.9428 53.0844 61.9695Z" fill="#2D2C2C"/>
<g id="Group_4" filter="url(#filter3_d_329_6262)">
<path id="Vector_8" d="M47.747 62.0342C48.5714 63.0732 50.6795 62.7074 52.4554 61.2171C54.2313 59.7267 55.0027 57.6763 54.1783 56.6372C53.3539 55.5982 51.2459 55.964 49.4699 57.4543C47.694 58.9447 46.9226 60.9951 47.747 62.0342Z" fill="url(#paint1_linear_329_6262)"/>
</g>
<g id="Group_5" filter="url(#filter4_di_329_6262)">
<path id="Vector_9" fill-rule="evenodd" clip-rule="evenodd" d="M51.9021 60.862C50.7288 61.7706 49.4042 62.0279 48.7435 61.4923L49.9849 60.4655C50.3065 60.6168 50.823 60.5061 51.3073 60.1728L51.9021 60.862ZM52.2464 60.5721C53.3185 59.5917 53.8247 58.3435 53.4855 57.57L52.2446 58.5963C52.3125 58.9606 52.0874 59.4669 51.6552 59.8871L52.2464 60.5721ZM50.5195 58.5712C51.0547 58.1629 51.6505 58.0293 51.9895 58.2256L53.2221 57.2061C52.5562 56.6146 51.1463 56.8952 49.9276 57.8853L50.5195 58.5712ZM50.1858 58.8734L49.5901 58.1832C48.5625 59.1683 48.0971 60.394 48.4644 61.1414L49.6977 60.1213C49.6052 59.7797 49.7944 59.2936 50.1858 58.8734Z" fill="#A9A8A8"/>
</g>
<path id="Vector_10" fill-rule="evenodd" clip-rule="evenodd" d="M79.7597 55.7204L77.7837 53.9864L77.7827 53.9876C77.7702 53.9764 77.7577 53.9653 77.7449 53.9543C76.5619 52.9419 74.209 53.7565 72.4896 55.7739C70.7702 57.7914 70.3353 60.2477 71.5184 61.2602C71.5356 61.275 71.5531 61.2893 71.5709 61.3033L73.4724 62.9739L75.4858 60.6511C75.9344 60.3187 76.3713 59.9126 76.7736 59.4406C77.1447 59.0052 77.4559 58.5494 77.7039 58.0921L79.7597 55.7204Z" fill="#2E3138"/>
<path id="Vector_11" d="M73.4808 62.9805C74.6638 63.993 77.0156 63.1796 78.7337 61.1638C80.4518 59.1479 80.8856 56.693 79.7026 55.6805C78.5196 54.668 76.1678 55.4813 74.4497 57.4972C72.7316 59.5131 72.2978 61.968 73.4808 62.9805Z" fill="#2E3138"/>
<g id="Group_6" filter="url(#filter5_d_329_6262)">
<path id="Vector_12" d="M74.3346 62.0928C75.2219 62.8522 76.9858 62.2422 78.2744 60.7302C79.5631 59.2182 79.8884 57.3769 79.0011 56.6175C78.1138 55.8581 76.3499 56.4681 75.0613 57.9801C73.7726 59.4921 73.4473 61.3334 74.3346 62.0928Z" fill="url(#paint2_linear_329_6262)"/>
</g>
<g id="Group_7" filter="url(#filter6_di_329_6262)">
<path id="Vector_13" fill-rule="evenodd" clip-rule="evenodd" d="M77.3123 56.8736C76.9684 56.9603 76.6039 57.132 76.2478 57.3785L76.5373 58.5823C76.6434 58.513 76.7509 58.4608 76.8547 58.4276L77.3123 56.8736ZM76.286 60.3589C76.1435 60.3717 76.0159 60.3412 75.9192 60.262L74.6115 61.5109C74.6476 61.5535 74.6872 61.5934 74.7302 61.6301C75.0136 61.8727 75.4046 61.9472 75.8394 61.8756L76.286 60.3589ZM75.9762 61.8486L76.4219 60.3349C76.5413 60.3039 76.667 60.2467 76.7908 60.166L77.0739 61.3431C76.7059 61.5954 76.3292 61.7676 75.9762 61.8486ZM76.9934 58.3943L77.4501 56.8433C77.9045 56.7577 78.3142 56.8284 78.6082 57.08C78.6905 57.1504 78.7602 57.232 78.8177 57.3232L77.498 58.5834C77.4759 58.5486 77.4491 58.5175 77.4176 58.4905C77.309 58.3975 77.1596 58.3682 76.9934 58.3943ZM78.0043 60.4978C77.7479 60.7987 77.4689 61.0565 77.1825 61.2661L76.8995 60.0888C76.9982 60.0125 77.0943 59.9214 77.1833 59.817C77.1941 59.8042 77.2048 59.7914 77.2152 59.7786L78.1337 60.3398C78.0919 60.3929 78.0488 60.4456 78.0043 60.4978ZM76.4287 58.6598L76.1393 57.4562C75.8588 57.6636 75.5855 57.9173 75.3341 58.2124C75.283 58.2723 75.2338 58.3328 75.1864 58.3938L76.1189 58.9636C76.1281 58.9523 76.1375 58.9411 76.1469 58.93C76.2353 58.8263 76.3306 58.7357 76.4287 58.6598ZM78.2094 60.241C78.5313 59.8102 78.762 59.3576 78.8939 58.9271L77.5097 59.2644C77.4611 59.4014 77.3875 59.5428 77.2905 59.6795L78.2094 60.241ZM76.0434 59.0625C75.9274 59.2247 75.8444 59.3937 75.7973 59.5543L74.4132 59.8916C74.5359 59.437 74.7718 58.9531 75.1113 58.493L76.0434 59.0625ZM74.3798 60.0271L75.7657 59.6894C75.7333 59.8779 75.7553 60.0474 75.8365 60.1701L74.5366 61.4114C74.305 61.0645 74.2584 60.5713 74.3798 60.0271ZM78.9327 58.7903L77.5503 59.1272C77.5873 58.9704 77.5889 58.8239 77.552 58.7027L78.8797 57.4349C79.0545 57.7942 79.0675 58.2724 78.9327 58.7903Z" fill="#4C4C4C"/>
</g>
<path id="Vector_14" fill-rule="evenodd" clip-rule="evenodd" d="M79.7367 55.784L77.7608 54.05L77.7604 54.0504C77.7481 54.0392 77.7356 54.0282 77.723 54.0174C76.54 53.0049 74.1871 53.8195 72.4677 55.837C70.7482 57.8544 70.3134 60.3107 71.4964 61.3232C71.5077 61.3329 71.5192 61.3424 71.5307 61.3518L73.4495 63.0375L75.4623 60.7152C75.9114 60.3827 76.3489 59.9761 76.7517 59.5036C77.1231 59.0677 77.4347 58.6113 77.6829 58.1534L79.7367 55.784Z" fill="#2E3138"/>
<path id="Vector_15" d="M73.4492 63.0337C74.6453 64.0574 77.0232 63.235 78.7604 61.1967C80.4976 59.1585 80.9362 56.6762 79.74 55.6525C78.5439 54.6287 76.166 55.4512 74.4288 57.4894C72.6916 59.5277 72.253 62.0099 73.4492 63.0337Z" fill="#2C2C2C"/>
<g id="Group_8" filter="url(#filter7_d_329_6262)">
<g id="Group_9" filter="url(#filter8_d_329_6262)">
<path id="Vector_16" d="M74.1671 62.1851C74.9589 62.9424 76.6901 62.4467 78.0338 61.0779C79.3776 59.709 79.825 57.9855 79.0333 57.2282C78.2415 56.4709 76.5103 56.9666 75.1665 58.3354C73.8228 59.7042 73.3753 61.4278 74.1671 62.1851Z" fill="url(#paint3_linear_329_6262)"/>
</g>
<g id="Group_10" filter="url(#filter9_di_329_6262)">
<path id="Vector_17" fill-rule="evenodd" clip-rule="evenodd" d="M77.6223 60.8368C76.7661 61.7094 75.703 62.0857 75.0835 61.7492L75.9852 60.7644C76.2707 60.8383 76.6791 60.6848 77.0345 60.3624L77.6223 60.8368ZM77.8795 60.5515C78.6434 59.6292 78.9027 58.5678 78.5228 57.993L77.6206 58.9783C77.7204 59.2606 77.5986 59.6909 77.2959 60.0804L77.8795 60.5515ZM76.1771 59.1773C76.5709 58.7798 77.0517 58.5951 77.3597 58.7096L78.2537 57.7332C77.6216 57.347 76.4823 57.7561 75.5954 58.7078L76.1771 59.1773ZM75.9316 59.4721L75.3458 58.9993C74.6231 59.9199 74.3981 60.9564 74.8013 61.5037L75.6951 60.5277C75.5725 60.2688 75.664 59.8582 75.9316 59.4721Z" fill="#A9A8A8"/>
</g>
</g>
<g id="Group_11" filter="url(#filter10_ii_329_6262)">
<path id="Vector_18" fill-rule="evenodd" clip-rule="evenodd" d="M46.4842 37.3271C46.4498 37.335 46.4148 37.3404 46.3795 37.3424C46.2562 37.3492 46.1511 37.3446 46.0646 37.3265C44.9778 37.0999 34.7379 37.4538 32.0976 38.3398C29.528 39.202 29.1032 40.2777 28.9063 40.7772C28.8779 40.8495 28.8545 40.9097 28.8299 40.9555C28.7062 41.1833 28.4729 41.6496 28.1766 42.2432C28.0017 42.5925 27.8052 42.9862 27.5959 43.4011L26.8848 44.8103C26.8355 44.9175 26.7809 45.0247 26.7251 45.1342C26.4877 45.5987 26.2305 46.1042 26.2361 46.803C26.2426 47.6643 26.6769 51.0294 33.6159 57.7794C35.9688 60.0683 39.7092 60.7305 42.2132 60.9167C43.2406 61.0307 44.0525 61.0497 44.4567 61.0519C44.5189 61.0522 44.5769 61.0329 44.6253 60.9985C44.6385 60.9892 44.6554 60.9832 44.6715 60.9831C44.6956 60.9828 44.7162 60.9704 44.7287 60.9497C45.1386 60.2743 45.8042 59.3694 46.5474 58.5033C47.3639 57.5768 48.2646 56.7049 49.0156 56.2188C50.7794 55.0769 53.8025 54.0963 55.1115 55.4429C56.597 56.9713 55.1539 59.4886 54.8078 60.0889C54.706 60.2655 54.6238 60.376 54.5427 60.4851C54.4504 60.6093 54.3595 60.7316 54.2424 60.9473C54.2367 60.9577 54.2318 60.9683 54.2275 60.979C54.2235 60.9894 54.2192 60.9997 54.214 61.0095C54.1949 61.0456 54.1747 61.0857 54.153 61.1305C54.1199 61.1991 54.1712 61.2775 54.2474 61.2768C54.2755 61.2766 54.302 61.2884 54.3246 61.3052C54.3736 61.3415 54.4351 61.3636 54.5037 61.3631L72.0209 61.2627C72.1138 61.2622 72.2019 61.219 72.2544 61.1423C72.4495 60.8573 72.628 60.5012 72.827 60.1041L72.8271 60.104C73.3768 59.0072 74.0834 57.5975 75.729 56.5088C77.2331 55.5137 78.8638 55.1753 79.7532 56.0399C80.6426 56.9045 80.3559 58.1875 80.0937 58.8504C79.8363 59.5014 79.5146 60.0557 79.3279 60.3771L79.3279 60.3772L79.3279 60.3773C79.2528 60.5066 79.1996 60.5983 79.1813 60.6433C79.1175 60.8004 81.2992 60.2586 81.6487 59.8091C82.7121 58.4411 83.4912 57.0507 84.1124 55.4309C84.2139 55.1659 84.4422 54.4824 84.4976 54.1962C84.5061 54.1527 84.5202 54.1107 84.5425 54.0724C84.8411 53.5597 85.1407 52.7361 85.1621 52.334C85.164 52.298 85.167 52.2606 85.1702 52.2213C85.2072 51.7632 85.2651 51.0477 83.8234 49.276C81.7761 46.7602 75.9053 40.4972 75.6578 40.2952C75.073 39.8179 74.1986 39.4551 73.4908 39.1615C73.0754 38.9892 72.7174 38.8407 72.5088 38.7067C69.4971 36.7725 65.5908 35.3527 59.4916 35.3527C58.7012 35.3006 57.8983 35.2911 57.0934 35.3365C55.0826 35.4501 53.2892 35.743 51.7552 36.0711C49.9927 36.4016 48.571 36.7808 47.5502 37.053C47.1232 37.1669 46.7664 37.262 46.4842 37.3271Z" fill="url(#paint4_linear_329_6262)"/>
</g>
<g id="Group_12" filter="url(#filter11_ddi_329_6262)">
<path id="Vector_19" d="M56.4306 49.2637C58.5678 49.4236 60.7735 47.5218 64.8757 46.0605C64.9759 46.0248 65.0102 45.8986 64.9398 45.8187L56.2042 35.8928C56.1882 35.8747 56.1687 35.861 56.1453 35.8551C55.9282 35.8003 54.6145 35.584 50.0999 36.7567C47.8305 37.3462 47.3341 37.5475 46.2457 37.6853C46.0736 37.7071 45.9998 37.909 46.2755 38.536C47.1544 40.5348 53.2703 49.0272 56.4306 49.2637Z" fill="url(#paint5_linear_329_6262)"/>
</g>
<g id="Group_13" filter="url(#filter12_di_329_6262)">
<path id="Vector_20" d="M73.5964 46.241C76.2894 46.6818 76.8894 46.9793 78.5394 47.698C79.6748 48.1926 81.3451 49.24 81.2857 49.8335C81.2261 50.4271 78.3167 50.9178 77.1932 50.9608C76.6441 50.9818 58.0905 50.9339 59.0039 50.2942C60.1293 49.5061 64.3569 47.7659 65.9048 46.9653C68.4855 45.6305 70.9036 45.8002 73.5964 46.241Z" fill="url(#paint6_linear_329_6262)"/>
</g>
<g id="Group_14" filter="url(#filter13_di_329_6262)">
<path id="Vector_21" d="M79.6022 47.4345L71.8556 38.5454C71.8556 38.5454 72.0352 38.7326 73.2405 39.3185C73.6611 39.5229 81.6816 48.7868 81.7227 48.889L79.6022 47.4345Z" fill="url(#paint7_linear_329_6262)"/>
</g>
<g id="Group_15" filter="url(#filter14_f_329_6262)">
<path id="Vector_22" d="M49.2502 52.3589C53.8725 52.507 57.0787 51.3832 60.3418 50.5237C52.6196 49.1272 36.3609 46.3941 36.4382 46.7889C36.5346 47.2824 37.3323 48.2124 40.5736 50.1311C43.7648 52.0202 48.7209 52.342 49.2502 52.3589Z" fill="url(#paint8_linear_329_6262)" fill-opacity="0.21"/>
</g>
<g id="Group_16" filter="url(#filter15_f_329_6262)">
<path id="Vector_23" d="M38.9814 36.7571C39.2824 36.6894 43.3534 35.2671 46.0508 34.8975C42.7676 37.2919 35.4552 42.4075 35.1221 42.1955C34.7058 41.9304 32.8889 40.5426 32.9863 38.8791C33.0824 37.2415 38.6051 36.8416 38.9814 36.7571Z" fill="url(#paint9_linear_329_6262)" fill-opacity="0.13"/>
</g>
<g id="Group_17" filter="url(#filter16_di_329_6262)">
<path id="Vector_24" d="M65.2038 53.8624C65.2297 53.811 65.2826 53.779 65.34 53.7798L66.9303 53.8028C67.0408 53.8044 67.1112 53.921 67.0614 54.0197L66.9574 54.2261C66.9314 54.2775 66.8784 54.3096 66.8209 54.3087L65.2319 54.2831C65.1215 54.2813 65.0512 54.1648 65.101 54.0662L65.2038 53.8624Z" fill="#323232"/>
</g>
<g id="Group_18" filter="url(#filter17_di_329_6262)">
<path id="Vector_25" d="M73.9626 54.3135C73.9884 54.2622 74.0414 54.2301 74.0988 54.2309L75.6891 54.254C75.7995 54.2556 75.8701 54.3721 75.8202 54.4709L75.7162 54.6772C75.6902 54.7286 75.6372 54.7607 75.5797 54.7598L73.9907 54.7342C73.8803 54.7325 73.81 54.616 73.8598 54.5174L73.9626 54.3135Z" fill="#323232"/>
</g>
<g id="Group_19" filter="url(#filter18_f_329_6262)">
<path id="Vector_26" d="M56.276 60.6048L71.4068 60.7847C71.4901 60.7857 71.5698 60.7522 71.627 60.6918C72.5018 59.7686 74.1459 57.9884 74.3797 57.5557C74.6823 56.9957 56.7532 56.5815 56.6109 58.1221C56.5375 58.9176 56.2579 59.5875 55.9909 60.0463C55.8599 60.2711 56.0159 60.6017 56.276 60.6048Z" fill="url(#paint10_linear_329_6262)" fill-opacity="0.12"/>
</g>
<path id="Vector_27" d="M49.9639 43.948L61.6344 42.0349C62.4783 42.7926 64.2002 44.9103 64.5438 45.2833C64.9888 45.7666 65.0221 45.9276 65.0221 45.9276C64.9385 46.0935 64.8173 46.1233 64.42 46.2479C63.8505 46.4266 63.6025 46.516 62.0459 47.2473C59.8043 48.3006 57.9497 49.3973 56.7589 49.2842C55.8116 49.1943 54.4409 48.8421 52.9768 47.3764C51.6682 46.0664 50.9971 44.9934 49.9639 43.948Z" fill="#C4C4C4" fill-opacity="0.2"/>
<g id="Group_20" filter="url(#filter19_ddii_329_6262)">
<path id="Vector_28" d="M30.2314 41.0166C30.0884 40.1847 30.457 39.7628 30.9066 39.0353C30.9194 39.0157 30.9351 38.9961 30.9514 38.9794C31.4485 38.4769 29.9713 39.2962 29.447 40.1144C29.2735 40.3853 29.219 40.5393 29.1125 40.8164C29.0643 40.9435 28.941 41.8052 28.8236 41.9454C28.7067 42.086 28.235 43.2229 28.1455 43.3855C28.0566 43.5484 28.1263 45.1296 29.3436 47.2347C30.3547 48.9835 32.1947 50.7246 32.4007 50.8686C32.6068 51.0126 33.2004 50.3771 33.3824 50.4173C33.8588 50.5224 34.8745 51.6092 35.2808 51.961C35.7549 52.3714 36.8632 53.3254 38.3378 53.846C40.1616 54.4899 40.522 54.4274 42.5292 54.3641C43.8012 54.3239 45.0435 53.6547 45.66 53.1782C45.8269 53.0492 45.7504 52.8211 45.5418 52.7901C44.2668 52.6007 41.6066 52.2714 38.9311 51.2491C34.9555 49.73 32.8761 46.4273 32.5786 45.9533C31.3282 43.9606 30.586 43.0826 30.2314 41.0166Z" fill="#272727"/>
</g>
<g id="Mask group">
<mask id="mask0_329_6262" style="mask-type:alpha" maskUnits="userSpaceOnUse" x="28" y="38" width="18" height="17">
<g id="Group_21">
<path id="Vector_29" d="M30.2359 41.0092C30.1227 40.3494 30.3846 39.7801 30.72 39.333C30.9031 39.0898 30.7156 38.8099 30.459 38.9735C29.8236 39.3792 29.4295 39.7975 29.2507 40.0478C29.0772 40.3187 28.9928 40.5037 28.8863 40.7808C28.8375 40.9075 28.9446 41.7967 28.8278 41.9372C28.7103 42.0774 28.2381 43.214 28.1486 43.3767C28.0596 43.5396 28.1285 45.121 29.3441 47.2266C30.3541 48.976 32.193 50.7183 32.399 50.8625C32.6049 51.0066 33.1989 50.3715 33.381 50.4118C33.8572 50.5172 34.8722 51.6047 35.2783 51.9567C35.7522 52.3675 36.8598 53.3221 38.3341 53.8437C40.1575 54.4888 40.5179 54.4265 42.5251 54.3644C43.7972 54.3251 45.0399 53.6567 45.6568 53.1805C45.8236 53.0517 45.7473 52.8236 45.5388 52.7925C44.2639 52.6021 41.6039 52.2712 38.929 51.2471C34.9544 49.7255 32.8771 46.4215 32.58 45.9473C31.3308 43.9538 30.5896 43.0756 30.2359 41.0092Z" fill="#999999"/>
</g>
</mask>
<g mask="url(#mask0_329_6262)">
<g id="Group_22">
<g id="Group_23" filter="url(#filter20_d_329_6262)">
<path id="Vector_30" d="M42.8525 52.0645L37.7274 49.5755C37.7266 49.5763 37.7257 49.5771 37.7248 49.578C37.6902 49.6117 37.6424 49.6618 37.5911 49.7265C37.4882 49.8567 37.3748 50.0415 37.3238 50.2661C37.2732 50.4884 37.2825 50.7542 37.4309 51.0531C37.5803 51.354 37.874 51.6948 38.4033 52.0573C38.7178 52.2728 39.1852 52.5064 39.7104 52.6573C40.2359 52.8081 40.8115 52.8738 41.3456 52.7622C41.6345 52.7019 42.051 52.505 42.4045 52.3163C42.5792 52.223 42.735 52.1336 42.8472 52.0676C42.849 52.0665 42.8507 52.0655 42.8525 52.0645Z" stroke="white" stroke-opacity="0.9" stroke-width="2.22854"/>
</g>
<g id="Group_24" filter="url(#filter21_d_329_6262)">
<path id="Vector_31" d="M30.7673 39.2902C30.7663 39.2908 30.7652 39.2914 30.7642 39.2919C30.6761 39.3512 30.557 39.4407 30.4374 39.5628C30.1983 39.8068 29.9591 40.1767 29.9423 40.6896C29.9378 40.8359 29.976 40.9539 30.0393 41.0262C30.0981 41.0934 30.1895 41.1341 30.3284 41.1085C30.4244 41.0911 30.5311 41.1187 30.6225 41.1539C30.7183 41.1907 30.8166 41.2435 30.9032 41.2959C30.9402 41.3182 30.9755 41.3407 31.0088 41.3627L30.7673 39.2902Z" stroke="white" stroke-opacity="0.9" stroke-width="2.22854"/>
</g>
</g>
</g>
</g>
</g>
<defs>
<filter id="filter0_f_329_6262" x="17.5802" y="40.6217" width="71.2469" height="31.1475" filterUnits="userSpaceOnUse" color-interpolation-filters="sRGB">
<feFlood flood-opacity="0" result="BackgroundImageFix"/>
<feBlend mode="normal" in="SourceGraphic" in2="BackgroundImageFix" result="shape"/>
<feGaussianBlur stdDeviation="3.26264" result="effect1_foregroundBlur_329_6262"/>
</filter>
<filter id="filter1_d_329_6262" x="46.4992" y="55.2052" width="8.98114" height="8.28949" filterUnits="userSpaceOnUse" color-interpolation-filters="sRGB">
<feFlood flood-opacity="0" result="BackgroundImageFix"/>
<feColorMatrix in="SourceAlpha" type="matrix" values="0 0 0 0 0 0 0 0 0 0 0 0 0 0 0 0 0 0 127 0" result="hardAlpha"/>
<feOffset/>
<feGaussianBlur stdDeviation="0.374436"/>
<feComposite in2="hardAlpha" operator="out"/>
<feColorMatrix type="matrix" values="0 0 0 0 0 0 0 0 0 0 0 0 0 0 0 0 0 0 0.25 0"/>
<feBlend mode="normal" in2="BackgroundImageFix" result="effect1_dropShadow_329_6262"/>
<feBlend mode="normal" in="SourceGraphic" in2="effect1_dropShadow_329_6262" result="shape"/>
</filter>
<filter id="filter2_di_329_6262" x="45.6333" y="56.3778" width="8.91469" height="7.29156" filterUnits="userSpaceOnUse" color-interpolation-filters="sRGB">
<feFlood flood-opacity="0" result="BackgroundImageFix"/>
<feColorMatrix in="SourceAlpha" type="matrix" values="0 0 0 0 0 0 0 0 0 0 0 0 0 0 0 0 0 0 127 0" result="hardAlpha"/>
<feOffset dy="0.299548"/>
<feGaussianBlur stdDeviation="0.224662"/>
<feColorMatrix type="matrix" values="0 0 0 0 1 0 0 0 0 1 0 0 0 0 1 0 0 0 0.41 0"/>
<feBlend mode="normal" in2="BackgroundImageFix" result="effect1_dropShadow_329_6262"/>
<feBlend mode="normal" in="SourceGraphic" in2="effect1_dropShadow_329_6262" result="shape"/>
<feColorMatrix in="SourceAlpha" type="matrix" values="0 0 0 0 0 0 0 0 0 0 0 0 0 0 0 0 0 0 127 0" result="hardAlpha"/>
<feOffset dx="-2.24662" dy="1.49774"/>
<feGaussianBlur stdDeviation="1.12331"/>
<feComposite in2="hardAlpha" operator="arithmetic" k2="-1" k3="1"/>
<feColorMatrix type="matrix" values="0 0 0 0 0 0 0 0 0 0 0 0 0 0 0 0 0 0 0.25 0"/>
<feBlend mode="normal" in2="shape" result="effect2_innerShadow_329_6262"/>
</filter>
<filter id="filter3_d_329_6262" x="45.5599" y="54.1888" width="10.806" height="10.2938" filterUnits="userSpaceOnUse" color-interpolation-filters="sRGB">
<feFlood flood-opacity="0" result="BackgroundImageFix"/>
<feColorMatrix in="SourceAlpha" type="matrix" values="0 0 0 0 0 0 0 0 0 0 0 0 0 0 0 0 0 0 127 0" result="hardAlpha"/>
<feOffset/>
<feGaussianBlur stdDeviation="0.928561"/>
<feComposite in2="hardAlpha" operator="out"/>
<feColorMatrix type="matrix" values="0 0 0 0 0 0 0 0 0 0 0 0 0 0 0 0 0 0 0.25 0"/>
<feBlend mode="normal" in2="BackgroundImageFix" result="effect1_dropShadow_329_6262"/>
<feBlend mode="normal" in="SourceGraphic" in2="effect1_dropShadow_329_6262" result="shape"/>
</filter>
<filter id="filter4_di_329_6262" x="45.9648" y="56.7401" width="8.41677" height="6.61258" filterUnits="userSpaceOnUse" color-interpolation-filters="sRGB">
<feFlood flood-opacity="0" result="BackgroundImageFix"/>
<feColorMatrix in="SourceAlpha" type="matrix" values="0 0 0 0 0 0 0 0 0 0 0 0 0 0 0 0 0 0 127 0" result="hardAlpha"/>
<feOffset dy="0.633355"/>
<feGaussianBlur stdDeviation="0.395847"/>
<feColorMatrix type="matrix" values="0 0 0 0 1 0 0 0 0 1 0 0 0 0 1 0 0 0 0.59 0"/>
<feBlend mode="normal" in2="BackgroundImageFix" result="effect1_dropShadow_329_6262"/>
<feBlend mode="normal" in="SourceGraphic" in2="effect1_dropShadow_329_6262" result="shape"/>
<feColorMatrix in="SourceAlpha" type="matrix" values="0 0 0 0 0 0 0 0 0 0 0 0 0 0 0 0 0 0 127 0" result="hardAlpha"/>
<feOffset dx="-2.37508" dy="1.58339"/>
<feGaussianBlur stdDeviation="1.18754"/>
<feComposite in2="hardAlpha" operator="arithmetic" k2="-1" k3="1"/>
<feColorMatrix type="matrix" values="0 0 0 0 0 0 0 0 0 0 0 0 0 0 0 0 0 0 0.25 0"/>
<feBlend mode="normal" in2="shape" result="effect2_innerShadow_329_6262"/>
</filter>
<filter id="filter5_d_329_6262" x="73.2165" y="55.6723" width="6.90287" height="7.36552" filterUnits="userSpaceOnUse" color-interpolation-filters="sRGB">
<feFlood flood-opacity="0" result="BackgroundImageFix"/>
<feColorMatrix in="SourceAlpha" type="matrix" values="0 0 0 0 0 0 0 0 0 0 0 0 0 0 0 0 0 0 127 0" result="hardAlpha"/>
<feOffset/>
<feGaussianBlur stdDeviation="0.309214"/>
<feComposite in2="hardAlpha" operator="out"/>
<feColorMatrix type="matrix" values="0 0 0 0 0 0 0 0 0 0 0 0 0 0 0 0 0 0 0.25 0"/>
<feBlend mode="normal" in2="BackgroundImageFix" result="effect1_dropShadow_329_6262"/>
<feBlend mode="normal" in="SourceGraphic" in2="effect1_dropShadow_329_6262" result="shape"/>
</filter>
<filter id="filter6_di_329_6262" x="72.4592" y="56.6849" width="6.93532" height="6.45356" filterUnits="userSpaceOnUse" color-interpolation-filters="sRGB">
<feFlood flood-opacity="0" result="BackgroundImageFix"/>
<feColorMatrix in="SourceAlpha" type="matrix" values="0 0 0 0 0 0 0 0 0 0 0 0 0 0 0 0 0 0 127 0" result="hardAlpha"/>
<feOffset dy="0.247371"/>
<feGaussianBlur stdDeviation="0.185528"/>
<feColorMatrix type="matrix" values="0 0 0 0 1 0 0 0 0 1 0 0 0 0 1 0 0 0 0.41 0"/>
<feBlend mode="normal" in2="BackgroundImageFix" result="effect1_dropShadow_329_6262"/>
<feBlend mode="normal" in="SourceGraphic" in2="effect1_dropShadow_329_6262" result="shape"/>
<feColorMatrix in="SourceAlpha" type="matrix" values="0 0 0 0 0 0 0 0 0 0 0 0 0 0 0 0 0 0 127 0" result="hardAlpha"/>
<feOffset dx="-1.85528" dy="1.23685"/>
<feGaussianBlur stdDeviation="0.927641"/>
<feComposite in2="hardAlpha" operator="arithmetic" k2="-1" k3="1"/>
<feColorMatrix type="matrix" values="0 0 0 0 0 0 0 0 0 0 0 0 0 0 0 0 0 0 0.25 0"/>
<feBlend mode="normal" in2="shape" result="effect2_innerShadow_329_6262"/>
</filter>
<filter id="filter7_d_329_6262" x="71.9183" y="55.0164" width="9.36366" height="9.38026" filterUnits="userSpaceOnUse" color-interpolation-filters="sRGB">
<feFlood flood-opacity="0" result="BackgroundImageFix"/>
<feColorMatrix in="SourceAlpha" type="matrix" values="0 0 0 0 0 0 0 0 0 0 0 0 0 0 0 0 0 0 127 0" result="hardAlpha"/>
<feOffset/>
<feGaussianBlur stdDeviation="0.928561"/>
<feComposite in2="hardAlpha" operator="out"/>
<feColorMatrix type="matrix" values="0 0 0 0 0 0 0 0 0 0 0 0 0 0 0 0 0 0 0.25 0"/>
<feBlend mode="normal" in2="BackgroundImageFix" result="effect1_dropShadow_329_6262"/>
<feBlend mode="normal" in="SourceGraphic" in2="effect1_dropShadow_329_6262" result="shape"/>
</filter>
<filter id="filter8_d_329_6262" x="73.2188" y="56.317" width="6.76257" height="6.77917" filterUnits="userSpaceOnUse" color-interpolation-filters="sRGB">
<feFlood flood-opacity="0" result="BackgroundImageFix"/>
<feColorMatrix in="SourceAlpha" type="matrix" values="0 0 0 0 0 0 0 0 0 0 0 0 0 0 0 0 0 0 127 0" result="hardAlpha"/>
<feOffset/>
<feGaussianBlur stdDeviation="0.278288"/>
<feComposite in2="hardAlpha" operator="out"/>
<feColorMatrix type="matrix" values="0 0 0 0 0 0 0 0 0 0 0 0 0 0 0 0 0 0 0.25 0"/>
<feBlend mode="normal" in2="BackgroundImageFix" result="effect1_dropShadow_329_6262"/>
<feBlend mode="normal" in="SourceGraphic" in2="effect1_dropShadow_329_6262" result="shape"/>
</filter>
<filter id="filter9_di_329_6262" x="72.2275" y="57.4303" width="7.26053" height="6.02444" filterUnits="userSpaceOnUse" color-interpolation-filters="sRGB">
<feFlood flood-opacity="0" result="BackgroundImageFix"/>
<feColorMatrix in="SourceAlpha" type="matrix" values="0 0 0 0 0 0 0 0 0 0 0 0 0 0 0 0 0 0 127 0" result="hardAlpha"/>
<feOffset dy="0.633356"/>
<feGaussianBlur stdDeviation="0.395847"/>
<feColorMatrix type="matrix" values="0 0 0 0 1 0 0 0 0 1 0 0 0 0 1 0 0 0 0.59 0"/>
<feBlend mode="normal" in2="BackgroundImageFix" result="effect1_dropShadow_329_6262"/>
<feBlend mode="normal" in="SourceGraphic" in2="effect1_dropShadow_329_6262" result="shape"/>
<feColorMatrix in="SourceAlpha" type="matrix" values="0 0 0 0 0 0 0 0 0 0 0 0 0 0 0 0 0 0 127 0" result="hardAlpha"/>
<feOffset dx="-2.37509" dy="1.58339"/>
<feGaussianBlur stdDeviation="1.18754"/>
<feComposite in2="hardAlpha" operator="arithmetic" k2="-1" k3="1"/>
<feColorMatrix type="matrix" values="0 0 0 0 0 0 0 0 0 0 0 0 0 0 0 0 0 0 0.25 0"/>
<feBlend mode="normal" in2="shape" result="effect2_innerShadow_329_6262"/>
</filter>
<filter id="filter10_ii_329_6262" x="26.2363" y="20.4504" width="70.09" height="40.9126" filterUnits="userSpaceOnUse" color-interpolation-filters="sRGB">
<feFlood flood-opacity="0" result="BackgroundImageFix"/>
<feBlend mode="normal" in="SourceGraphic" in2="BackgroundImageFix" result="shape"/>
<feColorMatrix in="SourceAlpha" type="matrix" values="0 0 0 0 0 0 0 0 0 0 0 0 0 0 0 0 0 0 127 0" result="hardAlpha"/>
<feOffset dx="11.1427" dy="-14.857"/>
<feGaussianBlur stdDeviation="44.5709"/>
<feComposite in2="hardAlpha" operator="arithmetic" k2="-1" k3="1"/>
<feColorMatrix type="matrix" values="0 0 0 0 0 0 0 0 0 0 0 0 0 0 0 0 0 0 0.07 0"/>
<feBlend mode="normal" in2="shape" result="effect1_innerShadow_329_6262"/>
<feColorMatrix in="SourceAlpha" type="matrix" values="0 0 0 0 0 0 0 0 0 0 0 0 0 0 0 0 0 0 127 0" result="hardAlpha"/>
<feOffset dy="-1.85712"/>
<feGaussianBlur stdDeviation="3.71424"/>
<feComposite in2="hardAlpha" operator="arithmetic" k2="-1" k3="1"/>
<feColorMatrix type="matrix" values="0 0 0 0 0 0 0 0 0 0 0 0 0 0 0 0 0 0 0.09 0"/>
<feBlend mode="normal" in2="effect1_innerShadow_329_6262" result="effect2_innerShadow_329_6262"/>
</filter>
<filter id="filter11_ddi_329_6262" x="43.0963" y="33.5571" width="23.378" height="17.9627" filterUnits="userSpaceOnUse" color-interpolation-filters="sRGB">
<feFlood flood-opacity="0" result="BackgroundImageFix"/>
<feColorMatrix in="SourceAlpha" type="matrix" values="0 0 0 0 0 0 0 0 0 0 0 0 0 0 0 0 0 0 127 0" result="hardAlpha"/>
<feOffset dx="-1.49774" dy="0.748874"/>
<feGaussianBlur stdDeviation="0.748874"/>
<feColorMatrix type="matrix" values="0 0 0 0 1 0 0 0 0 1 0 0 0 0 1 0 0 0 0.28 0"/>
<feBlend mode="normal" in2="BackgroundImageFix" result="effect1_dropShadow_329_6262"/>
<feColorMatrix in="SourceAlpha" type="matrix" values="0 0 0 0 0 0 0 0 0 0 0 0 0 0 0 0 0 0 127 0" result="hardAlpha"/>
<feOffset dy="-0.748874"/>
<feGaussianBlur stdDeviation="0.748874"/>
<feColorMatrix type="matrix" values="0 0 0 0 1 0 0 0 0 1 0 0 0 0 1 0 0 0 0.56 0"/>
<feBlend mode="normal" in2="effect1_dropShadow_329_6262" result="effect2_dropShadow_329_6262"/>
<feBlend mode="normal" in="SourceGraphic" in2="effect2_dropShadow_329_6262" result="shape"/>
<feColorMatrix in="SourceAlpha" type="matrix" values="0 0 0 0 0 0 0 0 0 0 0 0 0 0 0 0 0 0 127 0" result="hardAlpha"/>
<feOffset dx="-0.748874" dy="2.24662"/>
<feGaussianBlur stdDeviation="1.12331"/>
<feComposite in2="hardAlpha" operator="arithmetic" k2="-1" k3="1"/>
<feColorMatrix type="matrix" values="0 0 0 0 0 0 0 0 0 0 0 0 0 0 0 0 0 0 0.75 0"/>
<feBlend mode="normal" in2="shape" result="effect3_innerShadow_329_6262"/>
</filter>
<filter id="filter12_di_329_6262" x="55.9762" y="45.9204" width="26.0853" height="8.03967" filterUnits="userSpaceOnUse" color-interpolation-filters="sRGB">
<feFlood flood-opacity="0" result="BackgroundImageFix"/>
<feColorMatrix in="SourceAlpha" type="matrix" values="0 0 0 0 0 0 0 0 0 0 0 0 0 0 0 0 0 0 127 0" result="hardAlpha"/>
<feOffset dy="0.774434"/>
<feGaussianBlur stdDeviation="0.387216"/>
<feColorMatrix type="matrix" values="0 0 0 0 0.925374 0 0 0 0 0.925374 0 0 0 0 0.925374 0 0 0 0.37 0"/>
<feBlend mode="normal" in2="BackgroundImageFix" result="effect1_dropShadow_329_6262"/>
<feBlend mode="normal" in="SourceGraphic" in2="effect1_dropShadow_329_6262" result="shape"/>
<feColorMatrix in="SourceAlpha" type="matrix" values="0 0 0 0 0 0 0 0 0 0 0 0 0 0 0 0 0 0 127 0" result="hardAlpha"/>
<feOffset dx="-2.99548" dy="3.74436"/>
<feGaussianBlur stdDeviation="1.49774"/>
<feComposite in2="hardAlpha" operator="arithmetic" k2="-1" k3="1"/>
<feColorMatrix type="matrix" values="0 0 0 0 0 0 0 0 0 0 0 0 0 0 0 0 0 0 0.8 0"/>
<feBlend mode="normal" in2="shape" result="effect2_innerShadow_329_6262"/>
</filter>
<filter id="filter13_di_329_6262" x="68.86" y="38.5454" width="13.6371" height="13.339" filterUnits="userSpaceOnUse" color-interpolation-filters="sRGB">
<feFlood flood-opacity="0" result="BackgroundImageFix"/>
<feColorMatrix in="SourceAlpha" type="matrix" values="0 0 0 0 0 0 0 0 0 0 0 0 0 0 0 0 0 0 127 0" result="hardAlpha"/>
<feOffset dy="0.774434"/>
<feGaussianBlur stdDeviation="0.387216"/>
<feColorMatrix type="matrix" values="0 0 0 0 0.925374 0 0 0 0 0.925374 0 0 0 0 0.925374 0 0 0 0.37 0"/>
<feBlend mode="normal" in2="BackgroundImageFix" result="effect1_dropShadow_329_6262"/>
<feBlend mode="normal" in="SourceGraphic" in2="effect1_dropShadow_329_6262" result="shape"/>
<feColorMatrix in="SourceAlpha" type="matrix" values="0 0 0 0 0 0 0 0 0 0 0 0 0 0 0 0 0 0 127 0" result="hardAlpha"/>
<feOffset dx="-2.99548" dy="3.74436"/>
<feGaussianBlur stdDeviation="1.49774"/>
<feComposite in2="hardAlpha" operator="arithmetic" k2="-1" k3="1"/>
<feColorMatrix type="matrix" values="0 0 0 0 0 0 0 0 0 0 0 0 0 0 0 0 0 0 0.8 0"/>
<feBlend mode="normal" in2="shape" result="effect2_innerShadow_329_6262"/>
</filter>
<filter id="filter14_f_329_6262" x="25.9533" y="36.2661" width="44.8726" height="26.5902" filterUnits="userSpaceOnUse" color-interpolation-filters="sRGB">
<feFlood flood-opacity="0" result="BackgroundImageFix"/>
<feBlend mode="normal" in="SourceGraphic" in2="BackgroundImageFix" result="shape"/>
<feGaussianBlur stdDeviation="5.24209" result="effect1_foregroundBlur_329_6262"/>
</filter>
<filter id="filter15_f_329_6262" x="26.2426" y="28.1576" width="26.548" height="20.7841" filterUnits="userSpaceOnUse" color-interpolation-filters="sRGB">
<feFlood flood-opacity="0" result="BackgroundImageFix"/>
<feBlend mode="normal" in="SourceGraphic" in2="BackgroundImageFix" result="shape"/>
<feGaussianBlur stdDeviation="3.36992" result="effect1_foregroundBlur_329_6262"/>
</filter>
<filter id="filter16_di_329_6262" x="64.7135" y="53.0369" width="2.73601" height="3.12878" filterUnits="userSpaceOnUse" color-interpolation-filters="sRGB">
<feFlood flood-opacity="0" result="BackgroundImageFix"/>
<feColorMatrix in="SourceAlpha" type="matrix" values="0 0 0 0 0 0 0 0 0 0 0 0 0 0 0 0 0 0 127 0" result="hardAlpha"/>
<feOffset dy="-0.371424"/>
<feGaussianBlur stdDeviation="0.185712"/>
<feColorMatrix type="matrix" values="0 0 0 0 0.78755 0 0 0 0 0.78755 0 0 0 0 0.78755 0 0 0 0.19 0"/>
<feBlend mode="normal" in2="BackgroundImageFix" result="effect1_dropShadow_329_6262"/>
<feBlend mode="normal" in="SourceGraphic" in2="effect1_dropShadow_329_6262" result="shape"/>
<feColorMatrix in="SourceAlpha" type="matrix" values="0 0 0 0 0 0 0 0 0 0 0 0 0 0 0 0 0 0 127 0" result="hardAlpha"/>
<feOffset dy="1.85712"/>
<feGaussianBlur stdDeviation="0.928561"/>
<feComposite in2="hardAlpha" operator="arithmetic" k2="-1" k3="1"/>
<feColorMatrix type="matrix" values="0 0 0 0 0 0 0 0 0 0 0 0 0 0 0 0 0 0 0.74 0"/>
<feBlend mode="normal" in2="shape" result="effect2_innerShadow_329_6262"/>
</filter>
<filter id="filter17_di_329_6262" x="73.4723" y="53.4881" width="2.73601" height="3.12878" filterUnits="userSpaceOnUse" color-interpolation-filters="sRGB">
<feFlood flood-opacity="0" result="BackgroundImageFix"/>
<feColorMatrix in="SourceAlpha" type="matrix" values="0 0 0 0 0 0 0 0 0 0 0 0 0 0 0 0 0 0 127 0" result="hardAlpha"/>
<feOffset dy="-0.371424"/>
<feGaussianBlur stdDeviation="0.185712"/>
<feColorMatrix type="matrix" values="0 0 0 0 0.78755 0 0 0 0 0.78755 0 0 0 0 0.78755 0 0 0 0.19 0"/>
<feBlend mode="normal" in2="BackgroundImageFix" result="effect1_dropShadow_329_6262"/>
<feBlend mode="normal" in="SourceGraphic" in2="effect1_dropShadow_329_6262" result="shape"/>
<feColorMatrix in="SourceAlpha" type="matrix" values="0 0 0 0 0 0 0 0 0 0 0 0 0 0 0 0 0 0 127 0" result="hardAlpha"/>
<feOffset dy="1.85712"/>
<feGaussianBlur stdDeviation="0.928561"/>
<feComposite in2="hardAlpha" operator="arithmetic" k2="-1" k3="1"/>
<feColorMatrix type="matrix" values="0 0 0 0 0 0 0 0 0 0 0 0 0 0 0 0 0 0 0.74 0"/>
<feBlend mode="normal" in2="shape" result="effect2_innerShadow_329_6262"/>
</filter>
<filter id="filter18_f_329_6262" x="53.6967" y="54.8034" width="22.9337" height="8.22785" filterUnits="userSpaceOnUse" color-interpolation-filters="sRGB">
<feFlood flood-opacity="0" result="BackgroundImageFix"/>
<feBlend mode="normal" in="SourceGraphic" in2="BackgroundImageFix" result="shape"/>
<feGaussianBlur stdDeviation="1.12331" result="effect1_foregroundBlur_329_6262"/>
</filter>
<filter id="filter19_ddii_329_6262" x="27.1871" y="37.4273" width="19.496" height="23.3994" filterUnits="userSpaceOnUse" color-interpolation-filters="sRGB">
<feFlood flood-opacity="0" result="BackgroundImageFix"/>
<feColorMatrix in="SourceAlpha" type="matrix" values="0 0 0 0 0 0 0 0 0 0 0 0 0 0 0 0 0 0 127 0" result="hardAlpha"/>
<feOffset dy="0.69906"/>
<feGaussianBlur stdDeviation="0.466038"/>
<feColorMatrix type="matrix" values="0 0 0 0 0 0 0 0 0 0 0 0 0 0 0 0 0 0 0.57 0"/>
<feBlend mode="normal" in2="BackgroundImageFix" result="effect1_dropShadow_329_6262"/>
<feColorMatrix in="SourceAlpha" type="matrix" values="0 0 0 0 0 0 0 0 0 0 0 0 0 0 0 0 0 0 127 0" result="hardAlpha"/>
<feOffset dy="-0.466038"/>
<feGaussianBlur stdDeviation="0.466038"/>
<feColorMatrix type="matrix" values="0 0 0 0 0 0 0 0 0 0 0 0 0 0 0 0 0 0 1 0"/>
<feBlend mode="normal" in2="effect1_dropShadow_329_6262" result="effect2_dropShadow_329_6262"/>
<feBlend mode="normal" in="SourceGraphic" in2="effect2_dropShadow_329_6262" result="shape"/>
<feColorMatrix in="SourceAlpha" type="matrix" values="0 0 0 0 0 0 0 0 0 0 0 0 0 0 0 0 0 0 127 0" result="hardAlpha"/>
<feOffset dy="6.42489"/>
<feGaussianBlur stdDeviation="6.54767"/>
<feComposite in2="hardAlpha" operator="arithmetic" k2="-1" k3="1"/>
<feColorMatrix type="matrix" values="0 0 0 0 0 0 0 0 0 0 0 0 0 0 0 0 0 0 1 0"/>
<feBlend mode="normal" in2="shape" result="effect3_innerShadow_329_6262"/>
<feColorMatrix in="SourceAlpha" type="matrix" values="0 0 0 0 0 0 0 0 0 0 0 0 0 0 0 0 0 0 127 0" result="hardAlpha"/>
<feOffset dy="-0.700124"/>
<feGaussianBlur stdDeviation="0.700124"/>
<feComposite in2="hardAlpha" operator="arithmetic" k2="-1" k3="1"/>
<feColorMatrix type="matrix" values="0 0 0 0 0 0 0 0 0 0 0 0 0 0 0 0 0 0 1 0"/>
<feBlend mode="normal" in2="effect3_innerShadow_329_6262" result="effect4_innerShadow_329_6262"/>
</filter>
<filter id="filter20_d_329_6262" x="36.0017" y="48.2434" width="10.909" height="7.53448" filterUnits="userSpaceOnUse" color-interpolation-filters="sRGB">
<feFlood flood-opacity="0" result="BackgroundImageFix"/>
<feColorMatrix in="SourceAlpha" type="matrix" values="0 0 0 0 0 0 0 0 0 0 0 0 0 0 0 0 0 0 127 0" result="hardAlpha"/>
<feOffset dx="0.742845" dy="0.922754"/>
<feGaussianBlur stdDeviation="0.461378"/>
<feColorMatrix type="matrix" values="0 0 0 0 1 0 0 0 0 1 0 0 0 0 1 0 0 0 0.24 0"/>
<feBlend mode="normal" in2="BackgroundImageFix" result="effect1_dropShadow_329_6262"/>
<feBlend mode="normal" in="SourceGraphic" in2="effect1_dropShadow_329_6262" result="shape"/>
</filter>
<filter id="filter21_d_329_6262" x="28.6482" y="37.4851" width="5.40997" height="7.97369" filterUnits="userSpaceOnUse" color-interpolation-filters="sRGB">
<feFlood flood-opacity="0" result="BackgroundImageFix"/>
<feColorMatrix in="SourceAlpha" type="matrix" values="0 0 0 0 0 0 0 0 0 0 0 0 0 0 0 0 0 0 127 0" result="hardAlpha"/>
<feOffset dx="0.742845" dy="0.922754"/>
<feGaussianBlur stdDeviation="0.461378"/>
<feColorMatrix type="matrix" values="0 0 0 0 1 0 0 0 0 1 0 0 0 0 1 0 0 0 0.24 0"/>
<feBlend mode="normal" in2="BackgroundImageFix" result="effect1_dropShadow_329_6262"/>
<feBlend mode="normal" in="SourceGraphic" in2="effect1_dropShadow_329_6262" result="shape"/>
</filter>
<linearGradient id="paint0_linear_329_6262" x1="49.6475" y1="68.2398" x2="53.3146" y2="65.6523" gradientUnits="userSpaceOnUse">
<stop stop-color="#3F3F3F"/>
<stop offset="1" stop-color="#5C5C5C"/>
</linearGradient>
<linearGradient id="paint1_linear_329_6262" x1="49.5783" y1="67.8899" x2="53.1365" y2="65.4462" gradientUnits="userSpaceOnUse">
<stop stop-color="#AAAAAA"/>
<stop offset="1" stop-color="#C2C2C2"/>
</linearGradient>
<linearGradient id="paint2_linear_329_6262" x1="76.8981" y1="66.7748" x2="79.4922" y2="64.1267" gradientUnits="userSpaceOnUse">
<stop stop-color="#3F3F3F"/>
<stop offset="1" stop-color="#5C5C5C"/>
</linearGradient>
<linearGradient id="paint3_linear_329_6262" x1="76.2703" y1="66.7219" x2="78.9195" y2="64.3106" gradientUnits="userSpaceOnUse">
<stop stop-color="#AAAAAA"/>
<stop offset="1" stop-color="#C2C2C2"/>
</linearGradient>
<linearGradient id="paint4_linear_329_6262" x1="45.3967" y1="62.3143" x2="36.5652" y2="22.8295" gradientUnits="userSpaceOnUse">
<stop stop-color="#D8D8D8"/>
<stop offset="1" stop-color="white"/>
</linearGradient>
<linearGradient id="paint5_linear_329_6262" x1="60.8483" y1="26.3402" x2="67.6744" y2="45.2788" gradientUnits="userSpaceOnUse">
<stop stop-color="#E8EAE9"/>
<stop offset="0.498386" stop-color="#707072"/>
<stop offset="1" stop-color="#2F3032"/>
</linearGradient>
<linearGradient id="paint6_linear_329_6262" x1="61.4099" y1="78.5356" x2="60.434" y2="49.4471" gradientUnits="userSpaceOnUse">
<stop stop-color="#E8EAE9"/>
<stop offset="0.498386" stop-color="#707072"/>
<stop offset="1" stop-color="#2F3032"/>
</linearGradient>
<linearGradient id="paint7_linear_329_6262" x1="78.6144" y1="57.6592" x2="76.793" y2="43.9722" gradientUnits="userSpaceOnUse">
<stop stop-color="#E8EAE9"/>
<stop offset="0.498386" stop-color="#707072"/>
<stop offset="1" stop-color="#2F3032"/>
</linearGradient>
<linearGradient id="paint8_linear_329_6262" x1="46.656" y1="53.7803" x2="47.4247" y2="48.226" gradientUnits="userSpaceOnUse">
<stop stop-color="#ECEAEA"/>
<stop offset="1" stop-color="white" stop-opacity="0"/>
</linearGradient>
<linearGradient id="paint9_linear_329_6262" x1="32.4989" y1="36.0531" x2="37.5371" y2="41.2708" gradientUnits="userSpaceOnUse">
<stop stop-color="#ECEAEA"/>
<stop offset="1" stop-color="white" stop-opacity="0"/>
</linearGradient>
<linearGradient id="paint10_linear_329_6262" x1="60.785" y1="61.9257" x2="60.9193" y2="57.0844" gradientUnits="userSpaceOnUse">
<stop stop-color="#040404"/>
<stop offset="1" stop-color="#3C3C3C" stop-opacity="0"/>
</linearGradient>
</defs>
</svg>
