<svg width="24" height="25" viewBox="0 0 24 25" fill="none" xmlns="http://www.w3.org/2000/svg">
<g id="vuesax/outline/close-circle">
<g id="close-circle">
<path id="Vector" d="M12 22.9212C6.07 22.9212 1.25 18.2668 1.25 12.5406C1.25 6.81431 6.07 2.15991 12 2.15991C17.93 2.15991 22.75 6.81431 22.75 12.5406C22.75 18.2668 17.93 22.9212 12 22.9212ZM12 3.60838C6.9 3.60838 2.75 7.61579 2.75 12.5406C2.75 17.4653 6.9 21.4728 12 21.4728C17.1 21.4728 21.25 17.4653 21.25 12.5406C21.25 7.61579 17.1 3.60838 12 3.60838Z" fill="#353535"/>
<path id="Vector_2" d="M9.16986 15.9975C8.97986 15.9975 8.78986 15.9299 8.63986 15.7851C8.34986 15.505 8.34986 15.0415 8.63986 14.7615L14.2999 9.29596C14.5899 9.01593 15.0699 9.01593 15.3599 9.29596C15.6499 9.576 15.6499 10.0395 15.3599 10.3195L9.69986 15.7851C9.55986 15.9299 9.35986 15.9975 9.16986 15.9975Z" fill="#353535"/>
<path id="Vector_3" d="M14.8299 15.9975C14.6399 15.9975 14.4499 15.9299 14.2999 15.7851L8.63986 10.3195C8.34986 10.0395 8.34986 9.576 8.63986 9.29596C8.92986 9.01593 9.40986 9.01593 9.69986 9.29596L15.3599 14.7615C15.6499 15.0415 15.6499 15.505 15.3599 15.7851C15.2099 15.9299 15.0199 15.9975 14.8299 15.9975Z" fill="#353535"/>
</g>
</g>
</svg>
