<svg width="29" height="40" viewBox="0 0 29 40" fill="none" xmlns="http://www.w3.org/2000/svg">
<g id="Rectangle 831">
<path id="Vector" d="M0.000411987 14C0.000411987 6.26801 6.28691 0 14.0417 0C21.7965 0 28.083 6.26801 28.083 14V26C28.083 33.732 21.7965 40 14.0417 40C6.28691 40 0.000411987 33.732 0.000411987 26V14Z" fill="white"/>
<path id="Vector_2" d="M0.501898 14C0.501898 6.54416 6.56388 0.5 14.0417 0.5C21.5196 0.5 27.5815 6.54416 27.5815 14V26C27.5815 33.4558 21.5196 39.5 14.0417 39.5C6.56388 39.5 0.501898 33.4558 0.501898 26V14Z" stroke="#ADB3C4"/>
<path id="Oval" d="M13.7912 15.75C11.437 15.75 9.52864 13.8472 9.52864 11.5C9.52864 9.15279 11.437 7.25 13.7912 7.25C16.1453 7.25 18.0537 9.15279 18.0537 11.5C18.0537 13.8472 16.1453 15.75 13.7912 15.75Z" fill="black"/>
</g>
</svg>
