<svg width="55" height="55" viewBox="0 0 55 55" fill="none" xmlns="http://www.w3.org/2000/svg">
<g id="vuesax/bold/dislike">
<g id="dislike">
<path id="Vector" d="M35.7727 12.6042V35.8876C35.7727 36.8042 35.4978 37.698 34.9936 38.4542L28.7373 47.7584C27.7519 49.248 25.2998 50.3022 23.2144 49.523C20.9686 48.7667 19.479 46.2459 19.9602 44.0001L21.1519 36.5063C21.2436 35.8188 21.0603 35.2001 20.6707 34.7188C20.2811 34.2834 19.7082 34.0084 19.0894 34.0084H9.67067C7.86025 34.0084 6.30192 33.2751 5.38525 31.9917C4.51442 30.7542 4.354 29.1501 4.92692 27.523L10.5644 10.3584C11.2748 7.51673 14.3686 5.20215 17.4394 5.20215H26.3769C27.9123 5.20215 30.0665 5.72923 31.0519 6.71465L33.9852 8.9834C35.1082 9.85423 35.7727 11.1834 35.7727 12.6042Z" fill="#ED2E2E"/>
<path id="Vector_2" d="M43.0603 40.3563H45.4207C48.9728 40.3563 50.4165 38.9813 50.4165 35.5897V12.5584C50.4165 9.16675 48.9728 7.79175 45.4207 7.79175H43.0603C39.5082 7.79175 38.0645 9.16675 38.0645 12.5584V35.6126C38.0645 38.9813 39.5082 40.3563 43.0603 40.3563Z" fill="#C30000"/>
</g>
</g>
</svg>
