<svg width="40" height="38" viewBox="0 0 40 38" fill="none" xmlns="http://www.w3.org/2000/svg">
<g id="vuesax/outline/document-upload">
<g id="document-upload">
<path id="Vector" d="M15.0515 28.1041C14.3771 28.1041 13.8179 27.5658 13.8179 26.9166V20.2824L12.6336 21.4224C12.1565 21.8816 11.367 21.8816 10.89 21.4224C10.413 20.9633 10.413 20.2033 10.89 19.7441L14.1797 16.5774C14.5252 16.2449 15.068 16.1341 15.5285 16.3241C15.9891 16.4983 16.2852 16.9416 16.2852 17.4166V26.9166C16.2852 27.5658 15.7259 28.1041 15.0515 28.1041Z" fill="#515661"/>
<path id="Vector_2" d="M18.3416 21.7709C18.029 21.7709 17.7165 21.66 17.4698 21.4225L14.18 18.2559C13.703 17.7967 13.703 17.0367 14.18 16.5775C14.657 16.1184 15.4466 16.1184 15.9236 16.5775L19.2134 19.7442C19.6904 20.2034 19.6904 20.9634 19.2134 21.4225C18.9666 21.66 18.6541 21.7709 18.3416 21.7709Z" fill="#515661"/>
<path id="Vector_3" d="M24.9208 36.0208H15.0515C6.11983 36.0208 2.30371 32.3475 2.30371 23.75V14.25C2.30371 5.65246 6.11983 1.97913 15.0515 1.97913H23.2759C23.9503 1.97913 24.5096 2.51746 24.5096 3.16663C24.5096 3.81579 23.9503 4.35413 23.2759 4.35413H15.0515C7.46863 4.35413 4.77103 6.95079 4.77103 14.25V23.75C4.77103 31.0491 7.46863 33.6458 15.0515 33.6458H24.9208C32.5037 33.6458 35.2013 31.0491 35.2013 23.75V15.8333C35.2013 15.1841 35.7606 14.6458 36.435 14.6458C37.1094 14.6458 37.6686 15.1841 37.6686 15.8333V23.75C37.6686 32.3475 33.8525 36.0208 24.9208 36.0208Z" fill="#515661"/>
<path id="Vector_4" d="M36.4357 17.0208H29.8562C24.2307 17.0208 22.043 14.9149 22.043 9.49994V3.16661C22.043 2.69161 22.339 2.24827 22.7996 2.07411C23.2602 1.88411 23.7865 1.99494 24.1484 2.32744L37.3075 14.9941C37.6529 15.3266 37.768 15.8491 37.5706 16.2924C37.3733 16.7358 36.9291 17.0208 36.4357 17.0208ZM24.5103 6.03244V9.49994C24.5103 13.5849 25.6124 14.6458 29.8562 14.6458H33.4584L24.5103 6.03244Z" fill="#515661"/>
</g>
</g>
</svg>
