<svg width="16" height="12" viewBox="0 0 16 12" fill="none" xmlns="http://www.w3.org/2000/svg">
<path d="M1.8 0C0.813 0 0 0.762187 0 1.6875V10.3125C0 11.2378 0.813 12 1.8 12H14.2C15.187 12 16 11.2378 16 10.3125V3.5625C16 2.63719 15.187 1.875 14.2 1.875H8.01719L6.22891 0.478271C5.83362 0.169541 5.33567 0 4.82109 0H1.8ZM1.8 1.125H4.82109C5.05532 1.125 5.28102 1.20201 5.46094 1.34253L6.8625 2.4375L5.46094 3.53247C5.28102 3.67299 5.05532 3.75 4.82109 3.75H1.2V1.6875C1.2 1.37006 1.4614 1.125 1.8 1.125ZM8.01719 3H14.2C14.5386 3 14.8 3.24506 14.8 3.5625V10.3125C14.8 10.6299 14.5386 10.875 14.2 10.875H1.8C1.4614 10.875 1.2 10.6299 1.2 10.3125V4.875H4.82109C5.33567 4.875 5.83362 4.70546 6.22891 4.39673L8.01719 3Z" fill="#212121"/>
</svg>
