<svg width="24" height="25" viewBox="0 0 24 25" fill="none" xmlns="http://www.w3.org/2000/svg">
<g id="vuesax/outline/History">
<g id="Vector">
<path d="M12.0001 22.8933C6.80008 22.8933 2.58008 18.8087 2.58008 13.797C2.58008 11.9912 3.13008 10.2434 4.17008 8.73701C4.40008 8.40869 4.87008 8.31213 5.21008 8.53423C5.55008 8.75632 5.65008 9.21018 5.42008 9.53849C4.55008 10.7938 4.09008 12.2713 4.09008 13.7873C4.09008 18.0072 7.64008 21.4352 12.0101 21.4352C16.3801 21.4352 19.9301 18.0072 19.9301 13.7873C19.9301 9.56746 16.3701 6.13943 12.0001 6.13943C11.0801 6.13943 10.1801 6.26497 9.33008 6.51603C8.93008 6.63191 8.51008 6.41947 8.39008 6.03321C8.27008 5.64696 8.49008 5.24139 8.89008 5.12551C9.89008 4.83582 10.9301 4.68131 12.0001 4.68131C17.2001 4.68131 21.4201 8.76598 21.4201 13.7777C21.4201 18.7893 17.2001 22.8933 12.0001 22.8933Z" fill="#353535"/>
<path d="M7.87008 6.78641C7.70008 6.78641 7.52008 6.72847 7.38008 6.6126C7.06008 6.34222 7.03008 5.88837 7.30008 5.58902L10.1901 2.38309C10.4601 2.08374 10.9401 2.04511 11.2501 2.31549C11.5601 2.57621 11.5901 3.03972 11.3201 3.33907L8.43008 6.53535C8.28008 6.69951 8.07008 6.78641 7.87008 6.78641Z" fill="#353535"/>
<path d="M11.2401 9.16189C11.0901 9.16189 10.9301 9.11361 10.8001 9.0267L7.42008 6.64157C7.09008 6.40981 7.02008 5.95596 7.26008 5.6373C7.50008 5.30898 7.97008 5.24139 8.31008 5.47314L11.6801 7.84862C12.0101 8.08037 12.0901 8.53423 11.8401 8.86254C11.7001 9.06533 11.4701 9.16189 11.2401 9.16189Z" fill="#353535"/>
<path d="M14.4578 17.3409C14.3645 17.3409 14.2713 17.3188 14.1852 17.2598L11.9613 15.8961C11.409 15.557 11.0001 14.8125 11.0001 14.1565V11.1342C11.0001 10.832 11.244 10.5814 11.5381 10.5814C11.8322 10.5814 12.0761 10.832 12.0761 11.1342V14.1565C12.0761 14.4218 12.2913 14.8125 12.5137 14.9452L14.7375 16.3089C14.9958 16.4637 15.0747 16.8028 14.9241 17.0681C14.8165 17.2451 14.6371 17.3409 14.4578 17.3409Z" fill="#353535"/>
</g>
</g>
</svg>
