<svg width="24" height="24" viewBox="0 0 24 24" fill="none" xmlns="http://www.w3.org/2000/svg">
<g id="vuesax/bold/info-circle">
<g id="info-circle">
<path id="Vector" d="M12 2.32568C6.49 2.32568 2 6.66142 2 11.9821C2 17.3028 6.49 21.6385 12 21.6385C17.51 21.6385 22 17.3028 22 11.9821C22 6.66142 17.51 2.32568 12 2.32568ZM11.25 8.11954C11.25 7.72362 11.59 7.3953 12 7.3953C12.41 7.3953 12.75 7.72362 12.75 8.11954V12.9477C12.75 13.3437 12.41 13.672 12 13.672C11.59 13.672 11.25 13.3437 11.25 12.9477V8.11954ZM12.92 16.2116C12.87 16.3371 12.8 16.4337 12.71 16.5303C12.61 16.6172 12.5 16.6848 12.38 16.7331C12.26 16.7813 12.13 16.8103 12 16.8103C11.87 16.8103 11.74 16.7813 11.62 16.7331C11.5 16.6848 11.39 16.6172 11.29 16.5303C11.2 16.4337 11.13 16.3371 11.08 16.2116C11.03 16.0957 11 15.9702 11 15.8447C11 15.7191 11.03 15.5936 11.08 15.4777C11.13 15.3618 11.2 15.2556 11.29 15.1591C11.39 15.0722 11.5 15.0046 11.62 14.9563C11.86 14.8597 12.14 14.8597 12.38 14.9563C12.5 15.0046 12.61 15.0722 12.71 15.1591C12.8 15.2556 12.87 15.3618 12.92 15.4777C12.97 15.5936 13 15.7191 13 15.8447C13 15.9702 12.97 16.0957 12.92 16.2116Z" fill="#353535"/>
</g>
</g>
</svg>
