<svg width="21" height="11" viewBox="0 0 21 11" fill="none" xmlns="http://www.w3.org/2000/svg">
<path d="M1.99609 11H0.558594V0.0859375H1.99609V11ZM10.2695 5.76562L13.0977 11H11.6445L8.98828 5.76562H10.2695ZM6.42578 11H4.98828V0.0859375H9.13672C10.2044 0.0859375 11.0273 0.372396 11.6055 0.945312C12.1888 1.51823 12.4805 2.30729 12.4805 3.3125C12.4805 4.3125 12.1888 5.10156 11.6055 5.67969C11.0273 6.25781 10.2044 6.54688 9.13672 6.54688H6.42578V11ZM6.42578 1.32812V5.3125H9.10547C9.7513 5.3125 10.2357 5.1276 10.5586 4.75781C10.8867 4.38281 11.0508 3.89844 11.0508 3.30469C11.0508 2.71094 10.8867 2.23438 10.5586 1.875C10.2357 1.51042 9.7513 1.32812 9.10547 1.32812H6.42578ZM20.9727 5.83594V6.9375H14.207V5.83594H20.9727Z" fill="#E84B1B"/>
</svg>
