<svg width="57" height="55" viewBox="0 0 57 55" fill="none" xmlns="http://www.w3.org/2000/svg">
<g id="vuesax/bold/like">
<g id="like">
<path id="Vector" d="M20.1416 42.3729V19.0896C20.1416 18.1729 20.4196 17.2792 20.9293 16.5229L27.2543 7.21874C28.2506 5.72916 30.7296 4.67499 32.8379 5.45416C35.1085 6.21041 36.6144 8.73124 36.1279 10.9771L34.9231 18.4708C34.8304 19.1583 35.0158 19.7771 35.4096 20.2583C35.8035 20.6937 36.3827 20.9687 37.0083 20.9687H46.5305C48.3608 20.9687 49.9363 21.7021 50.863 22.9854C51.7434 24.2229 51.9056 25.8271 51.3264 27.4542L45.6269 44.6187C44.9087 47.4604 41.781 49.775 38.6764 49.775H29.6407C28.0884 49.775 25.9106 49.2479 24.9143 48.2625L21.9487 45.9937C20.8135 45.1458 20.1416 43.7937 20.1416 42.3729Z" fill="#00BA88"/>
<path id="Vector_2" d="M12.774 14.6208H10.3876C6.79653 14.6208 5.33691 15.9958 5.33691 19.3875V42.4417C5.33691 45.8334 6.79653 47.2084 10.3876 47.2084H12.774C16.3651 47.2084 17.8247 45.8334 17.8247 42.4417V19.3875C17.8247 15.9958 16.3651 14.6208 12.774 14.6208Z" fill="#00966D"/>
</g>
</g>
</svg>
