<svg width="16" height="16" viewBox="0 0 16 16" fill="none" xmlns="http://www.w3.org/2000/svg">
<path d="M13.0063 3.90016L9.04629 1.6135C8.39962 1.24016 7.59962 1.24016 6.94629 1.6135L2.99296 3.90016C2.34629 4.2735 1.94629 4.96683 1.94629 5.72016V10.2802C1.94629 11.0268 2.34629 11.7202 2.99296 12.1002L6.95296 14.3868C7.59962 14.7602 8.39962 14.7602 9.05296 14.3868L13.013 12.1002C13.6596 11.7268 14.0596 11.0335 14.0596 10.2802V5.72016C14.053 4.96683 13.653 4.28016 13.0063 3.90016ZM7.99962 4.8935C8.85962 4.8935 9.55296 5.58683 9.55296 6.44683C9.55296 7.30683 8.85962 8.00016 7.99962 8.00016C7.13962 8.00016 6.44629 7.30683 6.44629 6.44683C6.44629 5.5935 7.13962 4.8935 7.99962 4.8935ZM9.78629 11.1068H6.21296C5.67296 11.1068 5.35962 10.5068 5.65962 10.0602C6.11296 9.38683 6.99296 8.9335 7.99962 8.9335C9.00629 8.9335 9.88629 9.38683 10.3396 10.0602C10.6396 10.5002 10.3196 11.1068 9.78629 11.1068Z" fill="#E84B1B"/>
</svg>
