<svg width="29" height="29" viewBox="0 0 29 29" fill="none" xmlns="http://www.w3.org/2000/svg">
<g id="vuesax/bold/menu">
<g id="menu">
<path id="Vector" d="M21.1238 10.6862C23.0785 10.6862 24.663 9.10165 24.663 7.14704C24.663 5.19243 23.0785 3.60791 21.1238 3.60791C19.1692 3.60791 17.5847 5.19243 17.5847 7.14704C17.5847 9.10165 19.1692 10.6862 21.1238 10.6862Z" fill="#5966AC"/>
<path id="Vector_2" d="M7.87604 10.6862C9.83065 10.6862 11.4152 9.10165 11.4152 7.14704C11.4152 5.19243 9.83065 3.60791 7.87604 3.60791C5.92144 3.60791 4.33691 5.19243 4.33691 7.14704C4.33691 9.10165 5.92144 10.6862 7.87604 10.6862Z" fill="#5966AC"/>
<path id="Vector_3" d="M21.1238 25.3927C23.0785 25.3927 24.663 23.8082 24.663 21.8536C24.663 19.899 23.0785 18.3145 21.1238 18.3145C19.1692 18.3145 17.5847 19.899 17.5847 21.8536C17.5847 23.8082 19.1692 25.3927 21.1238 25.3927Z" fill="#5966AC"/>
<path id="Vector_4" d="M7.87604 25.3927C9.83065 25.3927 11.4152 23.8082 11.4152 21.8536C11.4152 19.899 9.83065 18.3145 7.87604 18.3145C5.92144 18.3145 4.33691 19.899 4.33691 21.8536C4.33691 23.8082 5.92144 25.3927 7.87604 25.3927Z" fill="#5966AC"/>
</g>
</g>
</svg>
