<svg width="25" height="24" viewBox="0 0 25 24" fill="none" xmlns="http://www.w3.org/2000/svg">
<path d="M16.8799 22.75H3.73993C2.78993 22.75 1.90993 22.31 1.33993 21.54C0.759932 20.76 0.58994 19.78 0.87994 18.85L5.08993 5.31995C5.46993 4.05995 6.62995 3.19995 7.94995 3.19995H20.2499C21.4599 3.19995 22.5499 3.92004 23.0099 5.04004C23.2599 5.62004 23.3099 6.28005 23.1599 6.93005L19.7899 20.46C19.4699 21.81 18.2699 22.75 16.8799 22.75ZM7.95993 4.70996C7.30993 4.70996 6.71993 5.14002 6.52993 5.77002L2.31994 19.3C2.17994 19.77 2.25993 20.26 2.55993 20.66C2.83993 21.04 3.27994 21.26 3.74994 21.26H16.8899C17.58 21.26 18.1799 20.79 18.3399 20.12L21.7099 6.57996C21.7899 6.24996 21.7699 5.92 21.6399 5.63C21.4 5.06 20.8699 4.69995 20.2599 4.69995H7.95993V4.70996Z" fill="#353535"/>
<path d="M21.28 22.75H16.5C16.09 22.75 15.75 22.41 15.75 22C15.75 21.59 16.09 21.25 16.5 21.25H21.28C21.69 21.25 22.07 21.08 22.35 20.78C22.63 20.48 22.77 20.08 22.74 19.67L21.75 6.05002C21.72 5.64002 22.03 5.27997 22.44 5.24997C22.85 5.22997 23.21 5.52991 23.24 5.93991L24.23 19.56C24.29 20.38 24 21.2 23.44 21.8C22.89 22.41 22.1 22.75 21.28 22.75Z" fill="#353535"/>
<path d="M10.1798 7.12996C10.1198 7.12996 10.0598 7.11994 9.99977 7.10994C9.59977 7.00994 9.34979 6.6099 9.44979 6.1999L10.4898 1.87996C10.5898 1.47996 10.9898 1.22991 11.3998 1.32991C11.7998 1.42991 12.0498 1.82994 11.9498 2.23994L10.9098 6.56001C10.8298 6.90001 10.5198 7.12996 10.1798 7.12996Z" fill="#353535"/>
<path d="M16.8799 7.13999C16.8299 7.13999 16.7699 7.13997 16.7199 7.11997C16.3199 7.02997 16.06 6.62995 16.14 6.22995L17.0799 1.88999C17.1699 1.47999 17.5699 1.23003 17.9699 1.31003C18.3699 1.39003 18.6299 1.79992 18.5499 2.19992L17.6099 6.54001C17.5399 6.90001 17.2299 7.13999 16.8799 7.13999Z" fill="#353535"/>
<path d="M16.2002 12.75H8.2002C7.7902 12.75 7.4502 12.41 7.4502 12C7.4502 11.59 7.7902 11.25 8.2002 11.25H16.2002C16.6102 11.25 16.9502 11.59 16.9502 12C16.9502 12.41 16.6102 12.75 16.2002 12.75Z" fill="#353535"/>
<path d="M15.2002 16.75H7.2002C6.7902 16.75 6.4502 16.41 6.4502 16C6.4502 15.59 6.7902 15.25 7.2002 15.25H15.2002C15.6102 15.25 15.9502 15.59 15.9502 16C15.9502 16.41 15.6102 16.75 15.2002 16.75Z" fill="#353535"/>
</svg>
