<svg width="24" height="25" viewBox="0 0 24 25" fill="none" xmlns="http://www.w3.org/2000/svg">
<g id="vuesax/bold/notification">
<g id="notification">
<path id="Vector" d="M19.3399 14.9578L18.3399 13.3549C18.1299 12.9976 17.9399 12.3216 17.9399 11.9257V9.48265C17.9399 7.21339 16.5599 5.25314 14.5699 4.33578C14.0499 3.44739 13.0899 2.89697 11.9899 2.89697C10.8999 2.89697 9.91994 3.4667 9.39994 4.36475C7.44994 5.30142 6.09994 7.24236 6.09994 9.48265V11.9257C6.09994 12.3216 5.90994 12.9976 5.69994 13.3452L4.68994 14.9578C4.28994 15.6048 4.19994 16.3194 4.44994 16.976C4.68994 17.623 5.25994 18.1251 5.99994 18.3666C7.93994 19.0039 9.97994 19.3129 12.0199 19.3129C14.0599 19.3129 16.0999 19.0039 18.0399 18.3762C18.7399 18.1541 19.2799 17.6423 19.5399 16.976C19.7999 16.3097 19.7299 15.5759 19.3399 14.9578Z" fill="#353535"/>
<path id="Vector_2" d="M14.8302 20.288C14.4102 21.4081 13.3002 22.2096 12.0002 22.2096C11.2102 22.2096 10.4302 21.9006 9.88018 21.3502C9.56018 21.0605 9.32018 20.6742 9.18018 20.2783C9.31018 20.2976 9.44018 20.3073 9.58018 20.3266C9.81018 20.3556 10.0502 20.3845 10.2902 20.4039C10.8602 20.4521 11.4402 20.4811 12.0202 20.4811C12.5902 20.4811 13.1602 20.4521 13.7202 20.4039C13.9302 20.3845 14.1402 20.3749 14.3402 20.3459C14.5002 20.3266 14.6602 20.3073 14.8302 20.288Z" fill="#353535"/>
</g>
</g>
</svg>
