<svg width="25" height="24" viewBox="0 0 25 24" fill="none" xmlns="http://www.w3.org/2000/svg">
<g id="vuesax/outline/notification-bing">
<g id="notification-bing">
<path id="Vector" d="M12.5 10.5199C12.09 10.5199 11.75 10.1799 11.75 9.76994V6.43994C11.75 6.02994 12.09 5.68994 12.5 5.68994C12.91 5.68994 13.25 6.02994 13.25 6.43994V9.76994C13.25 10.1899 12.91 10.5199 12.5 10.5199Z" fill="#353535"/>
<path id="Vector_2" d="M12.5201 20.35C9.94011 20.35 7.37011 19.94 4.92011 19.12C4.01011 18.82 3.32011 18.17 3.02011 17.35C2.72011 16.53 2.82011 15.59 3.31011 14.77L4.58011 12.65C4.86011 12.18 5.11011 11.3 5.11011 10.75V8.64999C5.11011 4.55999 8.43011 1.23999 12.5201 1.23999C16.6101 1.23999 19.9301 4.55999 19.9301 8.64999V10.75C19.9301 11.29 20.1801 12.18 20.4601 12.65L21.7301 14.77C22.2001 15.55 22.2801 16.48 21.9701 17.33C21.6601 18.18 20.9801 18.83 20.1201 19.12C17.6701 19.95 15.1001 20.35 12.5201 20.35ZM12.5201 2.74999C9.26011 2.74999 6.61011 5.39999 6.61011 8.65999V10.76C6.61011 11.57 6.29011 12.74 5.87011 13.43L4.60011 15.56C4.34011 15.99 4.28011 16.45 4.43011 16.85C4.58011 17.25 4.92011 17.55 5.40011 17.71C10.0001 19.24 15.0601 19.24 19.6601 17.71C20.0901 17.57 20.4201 17.25 20.5701 16.83C20.7301 16.41 20.6801 15.95 20.4501 15.56L19.1801 13.44C18.7601 12.75 18.4401 11.58 18.4401 10.77V8.66999C18.4301 5.39999 15.7801 2.74999 12.5201 2.74999Z" fill="#353535"/>
<path id="Vector_3" d="M12.4999 22.9001C11.4299 22.9001 10.3799 22.4601 9.61992 21.7001C8.85992 20.9401 8.41992 19.8901 8.41992 18.8201H9.91992C9.91992 19.5001 10.1999 20.1601 10.6799 20.6401C11.1599 21.1201 11.8199 21.4001 12.4999 21.4001C13.9199 21.4001 15.0799 20.2401 15.0799 18.8201H16.5799C16.5799 21.0701 14.7499 22.9001 12.4999 22.9001Z" fill="#353535"/>
</g>
</g>
</svg>
