<svg width="29" height="40" viewBox="0 0 29 40" fill="none" xmlns="http://www.w3.org/2000/svg">
<g id="Group 11474">
<g id="Group 11473">
<g id="Rectangle 830">
<path id="Vector" d="M0.000411987 14C0.000411987 6.26801 6.28691 0 14.0417 0C21.7965 0 28.083 6.26801 28.083 14V26C28.083 33.732 21.7965 40 14.0417 40C6.28691 40 0.000411987 33.732 0.000411987 26V14Z" fill="#283992"/>
<path id="Vector_2" d="M0.501898 14C0.501898 6.54416 6.56388 0.5 14.0417 0.5C21.5196 0.5 27.5815 6.54416 27.5815 14V26C27.5815 33.4558 21.5196 39.5 14.0417 39.5C6.56388 39.5 0.501898 33.4558 0.501898 26V14Z" stroke="#283992"/>
</g>
<path id="Oval" d="M13.7912 32.75C11.437 32.75 9.52864 30.8472 9.52864 28.5C9.52864 26.1528 11.437 24.25 13.7912 24.25C16.1453 24.25 18.0537 26.1528 18.0537 28.5C18.0537 30.8472 16.1453 32.75 13.7912 32.75Z" fill="white"/>
</g>
</g>
</svg>
