<svg width="25" height="25" viewBox="0 0 25 25" fill="none" xmlns="http://www.w3.org/2000/svg">
<g id="power-off">
<path id="Vector" d="M12.4999 21.1615C10.721 21.1599 8.9825 20.6312 7.50391 19.6422C6.02533 18.6531 4.87299 17.2481 4.19246 15.6045C3.51192 13.961 3.33371 12.1526 3.68032 10.4078C4.02693 8.66303 4.88283 7.06009 6.1399 5.80145C6.20885 5.73069 6.29126 5.67446 6.38229 5.63606C6.47332 5.59766 6.57111 5.57788 6.6699 5.57788C6.7687 5.57788 6.86649 5.59766 6.95751 5.63606C7.04854 5.67446 7.13096 5.73069 7.1999 5.80145C7.34035 5.94208 7.41924 6.1327 7.41924 6.33145C7.41924 6.5302 7.34035 6.72083 7.1999 6.86145C6.46303 7.54807 5.87201 8.37608 5.46209 9.29607C5.05217 10.2161 4.83175 11.2092 4.81399 12.2162C4.79622 13.2233 4.98146 14.2235 5.35868 15.1574C5.73589 16.0913 6.29733 16.9396 7.00952 17.6518C7.72171 18.364 8.57004 18.9255 9.50393 19.3027C10.4378 19.6799 11.4381 19.8651 12.4451 19.8474C13.4521 19.8296 14.4453 19.6092 15.3653 19.1993C16.2853 18.7893 17.1133 18.1983 17.7999 17.4615C18.4977 16.7665 19.0514 15.9405 19.4293 15.031C19.8071 14.1215 20.0016 13.1463 20.0016 12.1615C20.0016 11.1766 19.8071 10.2014 19.4293 9.29189C19.0514 8.38238 18.4977 7.55643 17.7999 6.86145C17.6594 6.72083 17.5806 6.5302 17.5806 6.33145C17.5806 6.1327 17.6594 5.94208 17.7999 5.80145C17.8688 5.73069 17.9513 5.67446 18.0423 5.63606C18.1333 5.59766 18.2311 5.57788 18.3299 5.57788C18.4287 5.57788 18.5265 5.59766 18.6175 5.63606C18.7085 5.67446 18.7909 5.73069 18.8599 5.80145C20.117 7.06009 20.9729 8.66303 21.3195 10.4078C21.6661 12.1526 21.4879 13.961 20.8073 15.6045C20.1268 17.2481 18.9745 18.6531 17.4959 19.6422C16.0173 20.6312 14.2788 21.1599 12.4999 21.1615Z" fill="black"/>
<path id="Vector_2" d="M12.5 12.9116C12.3019 12.909 12.1126 12.8292 11.9725 12.6891C11.8324 12.549 11.7526 12.3597 11.75 12.1616V4.16162C11.75 3.96271 11.829 3.77194 11.9697 3.63129C12.1103 3.49064 12.3011 3.41162 12.5 3.41162C12.6989 3.41162 12.8897 3.49064 13.0303 3.63129C13.171 3.77194 13.25 3.96271 13.25 4.16162V12.1616C13.2474 12.3597 13.1676 12.549 13.0275 12.6891C12.8874 12.8292 12.6981 12.909 12.5 12.9116Z" fill="black"/>
</g>
</svg>
