<svg width="24" height="24" viewBox="0 0 24 24" fill="none" xmlns="http://www.w3.org/2000/svg">
<g id="vuesax/outline/send-2">
<g id="send-2">
<path id="Vector" d="M9.78012 21.6299C10.9601 21.6299 12.6301 20.7999 13.9501 16.8299L14.6701 14.6699L16.8301 13.9499C20.7901 12.6299 21.6201 10.9599 21.6201 9.77995C21.6201 8.60995 20.7901 6.92995 16.8301 5.59995L8.34012 2.76995C6.22012 2.05995 4.45012 2.26995 3.36012 3.34995C2.27012 4.42995 2.06012 6.20995 2.77012 8.32995L5.60012 16.8199C6.93012 20.7999 8.60012 21.6299 9.78012 21.6299ZM16.3601 7.02995C19.1401 7.95995 20.1301 9.05995 20.1301 9.77995C20.1301 10.4999 19.1401 11.5999 16.3601 12.5199L13.8401 13.3599C13.6201 13.4299 13.4401 13.6099 13.3701 13.8299L12.5301 16.3499C11.6101 19.1299 10.5001 20.1199 9.78012 20.1199C9.06012 20.1199 7.96012 19.1299 7.03012 16.3499L4.20012 7.85995C3.69012 6.31995 3.78012 5.05995 4.43012 4.40995C5.08012 3.75995 6.34012 3.67995 7.87012 4.18995L16.3601 7.02995Z" fill="#898989"/>
<path id="Vector_2" d="M13.8902 14.4C14.0802 14.4 14.2702 14.33 14.4202 14.18C14.7102 13.89 14.7102 13.41 14.4202 13.12L10.8402 9.53C10.5502 9.24 10.0702 9.24 9.78019 9.53C9.49019 9.82 9.49019 10.3 9.78019 10.59L13.3602 14.18C13.5002 14.33 13.7002 14.4 13.8902 14.4Z" fill="#898989"/>
</g>
</g>
</svg>
