<svg width="25" height="24" viewBox="0 0 25 24" fill="none" xmlns="http://www.w3.org/2000/svg">
<g id="vuesax/outline/sms">
<g id="sms">
<path id="Vector" d="M17.9635 21.25H7.93024C4.26811 21.25 2.16113 19.15 2.16113 15.5V8.5C2.16113 4.85 4.26811 2.75 7.93024 2.75H17.9635C21.6256 2.75 23.7326 4.85 23.7326 8.5V15.5C23.7326 19.15 21.6256 21.25 17.9635 21.25ZM7.93024 4.25C5.06073 4.25 3.66612 5.64 3.66612 8.5V15.5C3.66612 18.36 5.06073 19.75 7.93024 19.75H17.9635C20.833 19.75 22.2276 18.36 22.2276 15.5V8.5C22.2276 5.64 20.833 4.25 17.9635 4.25H7.93024Z" fill="#515661"/>
<path id="Vector_2" d="M12.9466 12.87C12.1038 12.87 11.251 12.61 10.5989 12.08L7.45845 9.57997C7.13739 9.31997 7.07719 8.84997 7.33806 8.52997C7.59892 8.20997 8.07048 8.14997 8.39155 8.40997L11.5319 10.91C12.2945 11.52 13.5887 11.52 14.3513 10.91L17.4917 8.40997C17.8127 8.14997 18.2943 8.19997 18.5452 8.52997C18.806 8.84997 18.7559 9.32997 18.4248 9.57997L15.2844 12.08C14.6422 12.61 13.7894 12.87 12.9466 12.87Z" fill="#515661"/>
</g>
</g>
</svg>
