<svg width="241" height="135" viewBox="0 0 241 135" fill="none" xmlns="http://www.w3.org/2000/svg">
<path fill-rule="evenodd" clip-rule="evenodd" d="M118.06 0V10.603H113.828V51.864H108.269V39.1573H105.341V36.0881L98.9376 39.1573H97.3688V31.5241L89.7065 20.4606L82.0446 31.5241V57.4822H78.4479V62.5267H73.1408V41.939H68.7425L68.9257 33.3968H63.8357V30.9503H58.6786L57.885 16.1555L57.0919 30.9503H56.0999V33.3968H54.7615L55.2519 56.2737H54.3019V46.1809L43.6389 39.1573V51.864H32.9755V41.939H26.3932V36.0881L15.1177 44.9676V36.0881L0 47.9935V135H11.275H15.1177H25.9128H26.3932H32.9755H43.6389H54.3019H56.5119H66.0777H67.1749H72.524H73.1408H82.0446H87.8481H97.3688H108.269H113.828H123.249H127.277H136.724H139.285H147.96H152.684H160.314H163.078H167.014H173.713H175.433H182.132H185.747H188.831H200.864H205.85H212.334H218.819H223.811H225.303H232.546H234.475H241V50.2053H235.865L236.225 33.3968H225.303V9.06581H218.819V14.2378H212.334V18.9731H205.85V43.3863H200.864V32.0356H199.089V30.7838H187.522V32.0356H185.747V55.7038H182.132V25.2853H180.356V24.0335H168.79V25.2853H167.014V42.8017H163.078V32.0356H161.303V30.7838H149.737V32.0356H147.96V36.0881L144.249 40.5467V48.0216H139.285V43.3863H136.724V32.0356H127.277V25.3156L123.249 21.4828V10.603H119.017V0H118.06Z" fill="white" fill-opacity="0.2"/>
</svg>
