<svg width="24" height="25" viewBox="0 0 24 25" fill="none" xmlns="http://www.w3.org/2000/svg">
<g id="vuesax/bold/24-support">
<g id="24-support">
<path id="Vector" d="M18 2.90234H6C4.34 2.90234 3 4.18665 3 5.7703V16.3055C3 17.8891 4.34 19.1734 6 19.1734H6.76C7.56 19.1734 8.32 19.4728 8.88 20.0135L10.59 21.6455C11.37 22.389 12.64 22.389 13.42 21.6455L15.13 20.0135C15.69 19.4728 16.46 19.1734 17.25 19.1734H18C19.66 19.1734 21 17.8891 21 16.3055V5.7703C21 4.18665 19.66 2.90234 18 2.90234ZM10.38 13.5341C10.79 13.5341 11.13 13.8624 11.13 14.2583C11.13 14.6542 10.79 14.9825 10.38 14.9825H7.7C7.26 14.9825 6.85 14.7797 6.59 14.4321C6.34 14.1038 6.28 13.6982 6.4 13.312C6.75 12.2787 7.61 11.7187 8.37 11.2165C9.17 10.6951 9.62 10.3668 9.62 9.80668C9.62 9.30455 9.2 8.89898 8.68 8.89898C8.16 8.89898 7.75 9.31421 7.75 9.81634C7.75 10.2123 7.41 10.5406 7 10.5406C6.59 10.5406 6.25 10.2123 6.25 9.81634C6.25 8.52238 7.34 7.46017 8.69 7.46017C10.04 7.46017 11.13 8.51272 11.13 9.81634C11.13 11.1779 10.07 11.8732 9.22 12.4332C8.69 12.7809 8.19 13.1092 7.94 13.5437H10.38V13.5341ZM17 13.6017H16.79V14.268C16.79 14.6639 16.45 14.9922 16.04 14.9922C15.63 14.9922 15.29 14.6639 15.29 14.268V13.6017H13.33C13.33 13.6017 13.33 13.6017 13.32 13.6017C12.83 13.6017 12.38 13.3506 12.13 12.945C11.88 12.5298 11.88 12.018 12.13 11.6124C12.81 10.4826 13.6 9.19833 14.32 8.07819C14.64 7.58571 15.25 7.36361 15.82 7.51811C16.39 7.68227 16.79 8.1844 16.78 8.76379V12.1629H17C17.41 12.1629 17.75 12.4912 17.75 12.8871C17.75 13.283 17.41 13.6017 17 13.6017Z" fill="#353535"/>
<path id="Vector_2" d="M15.29 12.1532V9.31421C14.7 10.2412 14.09 11.2358 13.54 12.1435H15.29V12.1532Z" fill="#353535"/>
</g>
</g>
</svg>
