<svg width="24" height="25" viewBox="0 0 24 25" fill="none" xmlns="http://www.w3.org/2000/svg">
<g id="vuesax/bold/wallet">
<g id="wallet">
<path id="Vector" d="M11.94 3.05976L9.52995 8.47701H7.11995C6.71995 8.47701 6.32995 8.50598 5.94995 8.58323L6.94995 6.26569L6.98995 6.17878L7.04995 6.02428C7.07995 5.95668 7.09995 5.89874 7.12995 5.85046C8.28995 3.25288 9.58995 2.44175 11.94 3.05976Z" fill="#515661"/>
<path id="Vector_2" d="M18.7301 8.73776L18.7101 8.7281C18.1101 8.56394 17.5001 8.47703 16.8801 8.47703H10.6201L12.8701 3.42673L12.9001 3.35913C13.0401 3.40741 13.1901 3.47501 13.3401 3.52329L15.5501 4.42134C16.7801 4.91381 17.6401 5.4256 18.1701 6.04362C18.2601 6.15949 18.3401 6.26571 18.4201 6.39125C18.5101 6.52644 18.5801 6.66163 18.6201 6.80647C18.6601 6.89338 18.6901 6.97063 18.7101 7.05754C18.8601 7.55002 18.8701 8.11009 18.7301 8.73776Z" fill="#515661"/>
<path id="Vector_3" d="M12.52 17.9791H12.77C13.07 17.9791 13.32 17.7184 13.32 17.3997C13.32 16.9942 13.2 16.9362 12.94 16.8397L12.52 16.6948V17.9791Z" fill="#515661"/>
<path id="Vector_4" d="M18.29 10.1187C17.84 9.99313 17.37 9.92554 16.88 9.92554H7.11999C6.43999 9.92554 5.79999 10.0511 5.19999 10.3021C3.45999 11.0264 2.23999 12.6969 2.23999 14.6379V16.5209C2.23999 16.7526 2.25999 16.9747 2.28999 17.2065C2.50999 20.2772 4.20999 21.9188 7.38999 22.1216C7.61999 22.1506 7.84999 22.1699 8.09999 22.1699H15.9C19.6 22.1699 21.55 20.4703 21.74 17.0906C21.75 16.9071 21.76 16.714 21.76 16.5209V14.6379C21.76 12.5038 20.29 10.7077 18.29 10.1187ZM13.28 15.8932C13.74 16.0477 14.36 16.376 14.36 17.3996C14.36 18.2783 13.65 18.9833 12.77 18.9833H12.52V19.1957C12.52 19.4757 12.29 19.6978 12 19.6978C11.71 19.6978 11.48 19.4757 11.48 19.1957V18.9833H11.39C10.43 18.9833 9.63999 18.2011 9.63999 17.2354C9.63999 16.9554 9.86999 16.7333 10.16 16.7333C10.45 16.7333 10.68 16.9554 10.68 17.2354C10.68 17.641 11 17.979 11.39 17.979H11.48V16.3471L10.72 16.0863C10.26 15.9318 9.63999 15.6035 9.63999 14.5799C9.63999 13.7012 10.35 12.9963 11.23 12.9963H11.48V12.7838C11.48 12.5038 11.71 12.2817 12 12.2817C12.29 12.2817 12.52 12.5038 12.52 12.7838V12.9963H12.61C13.57 12.9963 14.36 13.7784 14.36 14.7441C14.36 15.0241 14.13 15.2462 13.84 15.2462C13.55 15.2462 13.32 15.0241 13.32 14.7441C13.32 14.3385 13 14.0005 12.61 14.0005H12.52V15.6325L13.28 15.8932Z" fill="#515661"/>
<path id="Vector_5" d="M10.6799 14.5799C10.6799 14.9854 10.7999 15.0434 11.0599 15.1399L11.4799 15.2848V14.0005H11.2299C10.9199 14.0005 10.6799 14.2612 10.6799 14.5799Z" fill="#515661"/>
</g>
</g>
</svg>
